<svg width="21" height="24" viewBox="0 0 21 24" fill="none" xmlns="http://www.w3.org/2000/svg">
<path d="M19.9457 18.4453C19.5968 19.2516 19.1837 19.9936 18.705 20.6761C18.0527 21.6062 17.5185 22.25 17.1068 22.6076C16.4687 23.1945 15.7849 23.495 15.0528 23.5121C14.5271 23.5121 13.8932 23.3626 13.1554 23.0592C12.4151 22.7571 11.7348 22.6076 11.1127 22.6076C10.4603 22.6076 9.76062 22.7571 9.01221 23.0592C8.26266 23.3626 7.65883 23.5206 7.19716 23.5364C6.49506 23.5661 5.79523 23.2571 5.09666 22.6076C4.65081 22.2187 4.09315 21.552 3.42506 20.6077C2.70828 19.5991 2.119 18.4296 1.65732 17.0964C1.16289 15.6562 0.915039 14.2617 0.915039 12.9116C0.915039 11.3651 1.24922 10.0312 1.91857 8.91342C2.44462 8.0156 3.14445 7.30735 4.02035 6.78744C4.89625 6.26751 5.84266 6.00255 6.86185 5.9856C7.41953 5.9856 8.15083 6.15811 9.05964 6.49713C9.96588 6.83728 10.5478 7.00979 10.8029 7.00979C10.9936 7.00979 11.64 6.80808 12.7359 6.40597C13.7722 6.03305 14.6468 5.87863 15.3633 5.93945C17.3048 6.09614 18.7635 6.8615 19.7334 8.24038C17.9971 9.29248 17.1382 10.7661 17.1552 12.6565C17.1709 14.1289 17.7051 15.3542 18.7549 16.3272C19.2306 16.7787 19.762 17.1277 20.3531 17.3755C20.225 17.7473 20.0896 18.1034 19.9457 18.4453ZM15.4929 0.923094C15.4929 2.0772 15.0713 3.15479 14.2308 4.1522C13.2166 5.3379 11.9899 6.02307 10.6596 5.91496C10.6426 5.7765 10.6328 5.63077 10.6328 5.47764C10.6328 4.36971 11.1151 3.18398 11.9717 2.2145C12.3993 1.72364 12.9431 1.31549 13.6027 0.989901C14.2608 0.66917 14.8832 0.4918 15.4687 0.461426C15.4858 0.615712 15.4929 0.770008 15.4929 0.923079V0.923094Z" fill="black"/>
</svg>
