<svg width="17" height="17" viewBox="0 0 17 17" fill="none" xmlns="http://www.w3.org/2000/svg">
<path d="M15.8667 7.64972H15.5834V6.51639C15.5821 5.42155 14.6949 4.53429 13.6001 4.53307H8.78334V2.80471C9.49591 2.65924 9.98261 1.99787 9.90949 1.27427C9.83641 0.550675 9.2273 0 8.50002 0C7.77273 0 7.16362 0.550708 7.09051 1.27427C7.0174 1.99787 7.50409 2.65924 8.21666 2.80471V4.53303H3.40001C2.30516 4.53429 1.41791 5.42152 1.41668 6.51636V7.64968H1.13336C0.507411 7.64972 0 8.15713 0 8.78304V10.483C0 11.109 0.507411 11.6164 1.13332 11.6164H1.41665V12.7497C1.41791 13.8445 2.30513 14.7318 3.39997 14.733V16.7163C3.39997 16.8209 3.45748 16.9169 3.54965 16.9662C3.64183 17.0155 3.75362 17.0101 3.84058 16.9521L7.09891 14.7803C7.14509 14.7496 7.19928 14.7332 7.25473 14.733H13.6C14.6949 14.7317 15.5821 13.8445 15.5834 12.7497V11.6163H15.8667C16.4926 11.6163 17 11.1089 17 10.483V8.78301C17 8.15713 16.4926 7.64972 15.8667 7.64972ZM7.65002 1.41638C7.65002 0.946955 8.03059 0.56638 8.50002 0.56638C8.96948 0.56638 9.35002 0.946955 9.35002 1.41638C9.35002 1.88581 8.96948 2.26638 8.50002 2.26638C8.03059 2.26638 7.65002 1.88581 7.65002 1.41638ZM1.13332 11.0497C0.820351 11.0497 0.566646 10.796 0.566646 10.483V8.78304C0.566646 8.47007 0.820351 8.21636 1.13332 8.21636H1.41665V11.0497H1.13332V11.0497ZM15.0167 12.7497C15.0158 13.5317 14.3821 14.1654 13.6 14.1664H7.25476C7.08702 14.1658 6.92293 14.2151 6.78331 14.3081L3.96669 16.1869V14.7331C3.96669 14.4201 3.71298 14.1664 3.40001 14.1664C2.61801 14.1655 1.98429 13.5318 1.98333 12.7497V6.51639C1.98426 5.73439 2.61797 5.10067 3.40001 5.09971H13.6C14.382 5.10064 15.0157 5.73436 15.0167 6.51639V12.7497ZM16.4334 10.483C16.4334 10.796 16.1796 11.0497 15.8667 11.0497H15.5834V8.2164H15.8667C16.1796 8.2164 16.4334 8.4701 16.4334 8.78307V10.483Z" fill="#00D27F"/>
<path d="M5.10027 7.36625C4.31787 7.36625 3.68359 8.00053 3.68359 8.78293C3.68359 9.56533 4.31787 10.1996 5.10027 10.1996C5.88267 10.1996 6.51695 9.56533 6.51695 8.78293C6.51599 8.00089 5.88228 7.36718 5.10027 7.36625ZM5.10027 9.6329C4.63085 9.6329 4.25027 9.25232 4.25027 8.7829C4.25027 8.31347 4.63085 7.93289 5.10027 7.93289C5.5697 7.93289 5.95028 8.31347 5.95028 8.7829C5.95028 9.25232 5.5697 9.6329 5.10027 9.6329Z" fill="#00D27F"/>
<path d="M11.9001 7.36625C11.1177 7.36625 10.4834 8.00053 10.4834 8.78293C10.4834 9.56533 11.1177 10.1996 11.9001 10.1996C12.6825 10.1996 13.3168 9.56533 13.3168 8.78293C13.3158 8.00089 12.6821 7.36718 11.9001 7.36625ZM11.9001 9.6329C11.4307 9.6329 11.0501 9.25232 11.0501 8.7829C11.0501 8.31347 11.4307 7.93289 11.9001 7.93289C12.3695 7.93289 12.7501 8.31347 12.7501 8.7829C12.7501 9.25232 12.3695 9.6329 11.9001 9.6329Z" fill="#00D27F"/>
<path d="M10.0697 10.8144C9.93892 10.731 9.7656 10.7671 9.67898 10.8957C9.66709 10.9135 9.37298 11.3331 8.50003 11.3331C7.63472 11.3331 7.33835 10.9206 7.32135 10.8962C7.23612 10.7675 7.06353 10.7307 6.93324 10.8135C6.80292 10.8963 6.76284 11.0681 6.84309 11.2C6.86096 11.2283 7.29446 11.8998 8.50003 11.8998C9.70561 11.8998 10.1391 11.2286 10.157 11.2C10.2383 11.0692 10.1994 10.8973 10.0697 10.8144Z" fill="#00D27F"/>
</svg>
