<svg width="24" height="23" viewBox="0 0 24 23" fill="none" xmlns="http://www.w3.org/2000/svg">
<path d="M18.947 12.5546V8.97947C18.947 7.24113 18.215 5.57399 16.9121 4.34479C15.6091 3.1156 13.842 2.42505 11.9994 2.42505C10.1567 2.42505 8.38959 3.1156 7.08666 4.34479C5.78373 5.57399 5.05176 7.24113 5.05176 8.97947V12.5546C5.05176 14.2929 5.78373 15.9601 7.08666 17.1893C8.38959 18.4185 10.1567 19.109 11.9994 19.109C13.842 19.109 15.6091 18.4185 16.9121 17.1893C18.215 15.9601 18.947 14.2929 18.947 12.5546ZM9.65612 14.515C9.71484 14.4591 9.78469 14.4148 9.86166 14.3845C9.93863 14.3543 10.0212 14.3387 10.1046 14.3387C10.1879 14.3387 10.2705 14.3543 10.3475 14.3845C10.4244 14.4148 10.4943 14.4591 10.553 14.515C10.7426 14.6948 10.9679 14.8375 11.2162 14.9348C11.4644 15.0322 11.7305 15.0823 11.9994 15.0823C12.2682 15.0823 12.5343 15.0322 12.7826 14.9348C13.0308 14.8375 13.2561 14.6948 13.4457 14.515C13.5647 14.4028 13.726 14.3397 13.8942 14.3397C14.0624 14.3397 14.2237 14.4028 14.3426 14.515C14.4615 14.6272 14.5283 14.7794 14.5283 14.938C14.5283 15.0967 14.4615 15.2489 14.3426 15.3611C12.1509 17.4049 8.6203 15.4922 9.65612 14.515Z" fill="#00D27F"/>
<path d="M22.105 7.78773H21.385C21.073 5.64847 19.9506 3.6881 18.2253 2.26904C16.4999 0.849972 14.2884 0.0681763 11.9994 0.0681763C9.71047 0.0681763 7.4989 0.849972 5.77358 2.26904C4.04826 3.6881 2.92585 5.64847 2.61385 7.78773H1.89382C1.39129 7.78773 0.909342 7.97607 0.553998 8.3113C0.198654 8.64653 -0.000976562 9.10121 -0.000976562 9.5753V13.1504C-0.000976562 13.6245 0.198654 14.0792 0.553998 14.4144C0.909342 14.7497 1.39129 14.938 1.89382 14.938H3.78862C3.95613 14.938 4.11678 14.8752 4.23523 14.7635C4.35368 14.6517 4.42022 14.5002 4.42022 14.3422V8.38359C4.42217 8.24077 4.36968 8.10204 4.2723 7.99267C4.17492 7.8833 4.03913 7.81058 3.88968 7.78773C4.19547 5.96602 5.18024 4.30703 6.66686 3.10916C8.15347 1.91129 10.0444 1.25317 11.9994 1.25317C13.9545 1.25317 15.8454 1.91129 17.332 3.10916C18.8186 4.30703 19.8034 5.96602 20.1092 7.78773C19.9597 7.81058 19.8239 7.8833 19.7266 7.99267C19.6292 8.10204 19.5767 8.24077 19.5786 8.38359V14.3422C19.5786 14.5002 19.6452 14.6517 19.7636 14.7635C19.8821 14.8752 20.0427 14.938 20.2102 14.938C20.2107 16.47 19.6424 17.9537 18.604 19.1315C17.5655 20.3092 16.1226 21.1066 14.5258 21.3852C14.5536 21.1743 14.5335 20.9603 14.4668 20.7574C14.4001 20.5545 14.2883 20.3673 14.1389 20.2083C13.9895 20.0493 13.8059 19.9222 13.6004 19.8354C13.3948 19.7486 13.172 19.7041 12.9468 19.7049H11.6836C11.2648 19.7049 10.8632 19.8618 10.5671 20.1412C10.271 20.4205 10.1046 20.7994 10.1046 21.1945C10.1046 21.5896 10.271 21.9685 10.5671 22.2478C10.8632 22.5272 11.2648 22.6841 11.6836 22.6841H13.2626C15.4403 22.6841 17.5287 21.868 19.0685 20.4154C20.6084 18.9627 21.4734 16.9924 21.4734 14.938H22.105C22.6076 14.938 23.0895 14.7497 23.4448 14.4144C23.8002 14.0792 23.9998 13.6245 23.9998 13.1504V9.5753C23.9998 9.10121 23.8002 8.64653 23.4448 8.3113C23.0895 7.97607 22.6076 7.78773 22.105 7.78773Z" fill="#00D27F"/>
</svg>
