<svg width="110" height="110" viewBox="0 0 110 110" fill="none" xmlns="http://www.w3.org/2000/svg">
<circle cx="55" cy="55" r="55" fill="#F0FFF9"/>
<g clip-path="url(#clip0_365_68798)">
<path d="M52.2901 80.791C49.781 80.791 47.74 78.7498 47.74 76.2409V49.6998C47.74 47.1909 49.7812 45.1497 52.2901 45.1497H78.8313C81.3402 45.1497 83.3812 47.1909 83.3812 49.6998V72.8252C86.1606 68.0126 87.7515 62.4274 87.7515 56.4705C87.7515 38.3822 73.0881 23.7188 54.9998 23.7188C36.9115 23.7188 22.248 38.3822 22.248 56.4705C22.248 74.5588 36.9115 89.2222 54.9998 89.2222C63.4369 89.2222 71.1281 86.031 76.9345 80.791H52.2901Z" fill="#F7E6FF"/>
<path d="M41.0971 60.0991H22.4492C23.8229 72.5599 32.1856 82.914 43.5322 87.1563V62.5342C43.5324 61.1893 42.4421 60.0991 41.0971 60.0991Z" fill="#00D27F"/>
<path d="M67.3174 26.1167V36.7906C67.3174 38.1355 68.4077 39.2258 69.7526 39.2258H82.8462C79.2101 33.3669 73.7776 28.741 67.3174 26.1167Z" fill="#00D27F"/>
<path d="M47.7398 49.6999C47.7398 47.191 49.781 45.1498 52.2899 45.1498H62.393V25.4616C62.393 22.8747 60.2961 20.7778 57.7092 20.7778H31.1681C28.5814 20.7778 26.4844 22.8747 26.4844 25.4616V52.0028C26.4844 54.5895 28.5814 56.6866 31.1681 56.6866H47.7398V49.6999Z" fill="#00D27F"/>
<path d="M47.7399 49.6999C47.7399 47.191 49.781 45.1498 52.2899 45.1498H58.7415V25.4616C58.7415 24.8924 58.2783 24.4292 57.7091 24.4292H31.1682C30.5989 24.4292 30.1357 24.8923 30.1357 25.4616V52.0028C30.1357 52.572 30.5988 53.0351 31.1682 53.0351H47.7399V49.6999Z" fill="#00D27F"/>
<path d="M44.4391 33.7388L43.458 36.3295L45.2013 40.9332H47.1636L44.4391 33.7388Z" fill="#00D27F"/>
<path d="M49.2146 46.3501L48.5461 44.585H46.584L47.9753 48.2588C48.2225 47.5205 48.6534 46.8657 49.2146 46.3501Z" fill="#00D27F"/>
<path d="M34.7415 49.0358L42.7315 27.9375C42.8742 27.5608 43.1333 27.2529 43.4577 27.0458C43.1707 26.8627 42.8327 26.7583 42.4766 26.7583C41.7178 26.7583 41.0381 27.2277 40.7694 27.9375L32.7793 49.0358C32.6137 49.473 32.9368 49.9409 33.4044 49.9409H35.3665C34.8989 49.9408 34.5758 49.473 34.7415 49.0358Z" fill="#00D27F"/>
<path d="M49.2145 46.3501C50.025 45.6054 51.1052 45.1498 52.29 45.1498H52.6644L46.146 27.9375C45.8773 27.2278 45.1976 26.7583 44.4387 26.7583C43.6798 26.7583 43.0001 27.2277 42.7313 27.9375L34.7412 49.0358C34.5756 49.473 34.8987 49.9409 35.3663 49.9409H37.8414C38.1192 49.9409 38.3681 49.769 38.4665 49.5093L40.3313 44.5849H48.546L49.2145 46.3501ZM41.7143 40.9335L44.4388 33.7391L47.1633 40.9335H41.7143Z" fill="black"/>
<path d="M83.515 49.6999C83.515 47.1132 81.418 45.0161 78.8313 45.0161H52.2902C49.7035 45.0161 47.6064 47.113 47.6064 49.6999V76.2411C47.6064 78.8278 49.7035 80.9248 52.2902 80.9248H76.7838C79.4574 78.5415 81.7376 75.7268 83.515 72.5892V49.6999Z" fill="#DD4D16"/>
<path d="M55.167 76.2409V49.6999C55.167 47.1132 57.2641 45.0161 59.8508 45.0161H52.2902C49.7035 45.0161 47.6064 47.113 47.6064 49.6999V76.2411C47.6064 78.8278 49.7035 80.9248 52.2902 80.9248H59.8508C57.2641 80.9247 55.167 78.8278 55.167 76.2409Z" fill="#FD5426"/>
<path d="M54.9489 66.8062C54.9976 63.617 56.9422 60.9051 59.6846 59.6552C59.2509 58.9143 58.9781 58.0684 58.9202 57.1587C58.7223 54.0484 60.9985 51.4179 63.9673 51.0439C63.7527 51.0132 63.5352 50.9966 63.3159 50.9966H62.2627C58.9479 50.9966 56.2752 53.7987 56.4888 57.1587C56.5467 58.0686 56.8195 58.9143 57.2532 59.6552C54.5109 60.9051 52.5662 63.6168 52.5176 66.8062C52.4492 71.2817 56.0701 74.9441 60.5301 74.9441H62.9616C58.5015 74.9443 54.8806 71.2817 54.9489 66.8062Z" fill="#D73D24"/>
<path d="M75.9725 69.1498C73.3261 70.5571 70.3749 71.293 67.3776 71.293H63.0547C60.681 71.293 58.6721 69.4355 58.6016 67.0629C58.5284 64.5976 60.5126 62.5687 62.9617 62.5687H67.2719C67.9942 62.5687 68.7023 62.7692 69.3173 63.1478L70.4817 63.8645L71.7105 56.5617L71.2475 57.0797C70.2026 58.249 68.7088 58.9174 67.1407 58.9174H64.6944C63.4356 58.9174 62.428 57.8221 62.5739 56.5348C62.6972 55.4478 63.6581 54.6484 64.7521 54.6484H71.212L69.0633 52.4103C68.1965 51.5075 66.999 50.9971 65.7475 50.9971H64.6944C61.3795 50.9971 58.7068 53.7991 58.9204 57.1592C58.9783 58.069 59.2512 58.9148 59.6848 59.6557C56.9425 60.9056 54.9979 63.6173 54.9492 66.8067C54.8809 71.2822 58.5018 74.9446 62.9617 74.9446H67.0575C71.3489 74.9446 75.2953 72.4323 77.1114 68.5444L75.9725 69.1498Z" fill="black"/>
</g>
<defs>
<clipPath id="clip0_365_68798">
<rect width="68.4444" height="68.4444" fill="white" transform="translate(20.7773 20.7778)"/>
</clipPath>
</defs>
</svg>
