<svg width="277" height="175" viewBox="0 0 277 175" fill="none" xmlns="http://www.w3.org/2000/svg">
<path d="M171.229 174.325L0.97657 76.0245C-0.213544 75.3385 -0.213544 74.2311 0.97657 73.5451L100.715 15.932C101.381 15.5956 102.117 15.4204 102.864 15.4204C103.61 15.4204 104.346 15.5956 105.012 15.932L275.265 114.282C276.455 114.959 276.455 116.075 275.265 116.761L175.494 174.366C174.829 174.692 174.097 174.859 173.356 174.852C172.616 174.844 171.887 174.664 171.229 174.325Z" fill="#F9F9F9"/>
<path d="M186.808 47.6354L146.518 36.007L104.773 0.782879C104.203 0.34584 103.52 0.0796412 102.805 0.0152656C102.09 -0.0491101 101.371 0.0909812 100.732 0.419231L0.943745 58.0323C0.684182 58.1556 0.461246 58.3445 0.296925 58.5802C0.132604 58.8159 0.0325758 59.0904 0.00671028 59.3766C-0.0191552 59.6628 0.0300355 59.9508 0.149428 60.2122C0.26882 60.4736 0.45429 60.6993 0.687542 60.8671L42.4407 96.0912L82.7311 107.72L126.336 144.547L170.965 159.283C172.472 159.684 174.075 159.519 175.469 158.82L180.039 156.175L275.257 101.207C276.439 100.529 276.348 99.6202 275.05 99.1905L230.421 84.4628L186.808 47.6354Z" fill="#455A64"/>
<path d="M146.519 36.0068L42.4414 96.0911L82.7317 107.719L186.809 47.6353L146.519 36.0068Z" fill="#455A64"/>
<path d="M126.336 144.547L170.965 159.283C172.473 159.685 174.077 159.518 175.469 158.812L275.257 101.207C276.439 100.529 276.348 99.6203 275.051 99.1906L230.421 84.4629L126.336 144.547Z" fill="#455A64"/>
<path d="M139.799 39.8832L101.616 7.66748L10.9688 59.9995L49.1598 92.2152L139.799 39.8832Z" fill="#E0E0E0"/>
<path d="M180.089 51.5117L89.4505 103.844L49.1602 92.2153L139.799 39.8833L180.089 51.5117Z" fill="#E0E0E0"/>
<g style="mix-blend-mode:multiply" opacity="0.5">
<g style="mix-blend-mode:multiply" opacity="0.5">
<path d="M180.089 51.5117L89.4505 103.844L49.1602 92.2153L139.799 39.8833L180.089 51.5117Z" fill="#E0E0E0"/>
</g>
</g>
<path d="M223.728 88.3392L133.089 140.671L89.4512 103.844L180.09 51.5117L223.728 88.3392Z" fill="#E0E0E0"/>
<path d="M262.191 101.025L171.543 153.357L133.088 140.671L223.727 88.3389L262.191 101.025Z" fill="#E0E0E0"/>
<g style="mix-blend-mode:multiply" opacity="0.5">
<g style="mix-blend-mode:multiply" opacity="0.5">
<path d="M262.191 101.025L171.543 153.357L133.088 140.671L223.727 88.3389L262.191 101.025Z" fill="#E0E0E0"/>
</g>
</g>
<path d="M33.0768 78.653L45.8044 70.9007L25.6634 51.5117L10.9688 59.9996L33.0768 78.653Z" fill="#F0F0F0"/>
<path d="M49.1606 68.958L29.0195 49.5773L59.2352 32.0645L79.3762 51.5113L49.1606 68.958Z" fill="#F0F0F0"/>
<path d="M62.5898 30.1969L82.7309 49.5776L92.8055 43.7593L89.4501 14.6841L62.5898 30.1969Z" fill="#F0F0F0"/>
<path d="M96.1602 41.8254L92.8047 12.7503L101.615 7.66748L134.343 35.2798L96.1602 41.8254Z" fill="#F0F0F0"/>
<path d="M60.9118 85.4381L50.8371 75.7437L38.25 83.0083L49.1594 92.2152L60.9118 85.4381Z" fill="#F0F0F0"/>
<path d="M54.1934 73.8013L64.268 83.4957L94.4506 66.0738L84.4008 56.3628L54.1934 73.8013Z" fill="#F0F0F0"/>
<path d="M97.8383 64.1149L87.7637 54.4204L96.9871 49.098L116.302 45.7012V53.4535L97.8383 64.1149Z" fill="#F0F0F0"/>
<path d="M119.658 51.5115V45.1064L135.617 42.3047L119.658 51.5115Z" fill="#F0F0F0"/>
<path d="M136.452 57.3297C132.741 56.2553 127.476 56.6934 124.7 58.2967C121.923 59.9001 122.666 62.0737 126.352 63.1398C130.039 64.2059 135.32 63.7845 138.105 62.1729C140.89 60.5612 140.155 58.3959 136.452 57.3297Z" fill="#E6E6E6"/>
<path d="M125.51 55.2222C124.786 55.4567 124.089 55.764 123.427 56.1396C120.501 57.7925 120.427 60.024 120.535 60.8918C120.598 61.4022 120.757 61.8959 121.006 62.3464L112.914 67.0077L97.8066 64.1067L116.27 53.4453L125.51 55.2222Z" fill="#E6E6E6"/>
<path d="M119.658 51.5117L130.014 53.3051L135.32 54.0407L153.229 43.7594L139.799 39.8833L119.658 51.5117Z" fill="#E6E6E6"/>
<path d="M180.056 51.5116L154.849 66.0657L139.832 64.0078C142.27 62.3549 142.311 60.3879 142.229 59.5697C142.164 59.0634 142.007 58.5733 141.766 58.1234L162.155 46.3462L180.056 51.5116Z" fill="#E6E6E6"/>
<path d="M151.848 67.8177L139.806 74.7683L119.607 70.9252L127.988 66.0656L128.054 66.0243C128.996 66.1515 129.946 66.215 130.897 66.2143C132.839 66.2303 134.774 65.9659 136.641 65.4292L151.848 67.8177Z" fill="#E6E6E6"/>
<path d="M94.4502 66.0737L64.2676 83.4957L79.3754 86.4049L109.566 68.9664L94.4502 66.0737Z" fill="#E6E6E6"/>
<path d="M139.807 74.7765L119.624 70.9004L89.4336 88.3389L109.591 92.215L139.807 74.7765Z" fill="#E6E6E6"/>
<path d="M60.9125 85.438L49.1602 92.215L62.5903 96.0912L76.0204 88.3389L60.9125 85.438Z" fill="#E6E6E6"/>
<path d="M106.236 94.1574L86.0786 90.2812L71.541 98.6781L89.4506 103.844L106.236 94.1574Z" fill="#E6E6E6"/>
<path d="M159.947 74.7767L171.162 95.4301L200.229 78.6528L173.377 67.0161L159.947 74.7767Z" fill="#F0F0F0"/>
<path d="M106.237 94.1572L109.592 99.9673L108.543 119.96L89.4512 103.843L106.237 94.1572Z" fill="#F0F0F0"/>
<path d="M109.592 92.2152L112.947 98.0336L155.048 73.7271L151.849 67.8179L109.592 92.2152Z" fill="#F0F0F0"/>
<path d="M154.881 66.0741L158.269 71.8677L185.543 56.1152L180.088 51.5117L154.881 66.0741Z" fill="#F0F0F0"/>
<path d="M156.592 76.7104L114.624 100.943L113.541 124.183L116.723 126.861L167.832 97.3556L156.592 76.7104Z" fill="#F0F0F0"/>
<path d="M176.734 65.0822L188.272 58.4209L207.363 74.5288L203.595 76.7106L176.734 65.0822Z" fill="#F0F0F0"/>
<path d="M122.178 131.464L136.443 123.232L143.162 134.861L133.087 140.671L122.178 131.464Z" fill="#F0F0F0"/>
<path d="M153.226 113.54L139.799 121.292L146.514 132.923L159.941 125.171L153.226 113.54Z" fill="#F0F0F0"/>
<path d="M156.592 111.604L171.047 103.249L177.477 115.042L163.303 123.233L156.592 111.604Z" fill="#F0F0F0"/>
<path d="M180.783 113.141L174.369 101.339L203.593 84.4626L218.279 83.7354L223.726 88.3388L180.783 113.141Z" fill="#F0F0F0"/>
<path d="M210.09 76.8345L203.594 80.5866L214.065 80.1817L210.09 76.8345Z" fill="#F0F0F0"/>
<path d="M197.08 119.472C193.378 118.406 188.113 118.836 185.336 120.439C182.559 122.042 183.303 124.216 186.989 125.29C190.675 126.365 195.956 125.927 198.742 124.323C201.527 122.72 200.791 120.513 197.08 119.472Z" fill="#E6E6E6"/>
<path d="M143.163 134.861L156.593 138.737L145.906 144.902L133.088 140.671L143.163 134.861Z" fill="#E6E6E6"/>
<path d="M146.518 132.919L159.948 136.795L173.378 129.043L159.948 125.167L146.518 132.919Z" fill="#E6E6E6"/>
<path d="M163.303 123.232L176.749 127.125L181.221 124.538C181.221 124.538 179.097 119.794 185.353 117.811L177.46 115.067L163.303 123.232Z" fill="#E6E6E6"/>
<path d="M180.783 113.141L189.048 116.116C191.277 115.847 193.53 115.847 195.759 116.116L220.379 101.909L206.949 98.0332L180.783 113.141Z" fill="#E6E6E6"/>
<path d="M210.305 96.0911L223.735 99.9673L236.553 92.5704L223.727 88.3389L210.305 96.0911Z" fill="#E6E6E6"/>
<path d="M245.099 95.3887L223.734 107.72L240.52 113.538L262.19 101.025L245.099 95.3887Z" fill="#E6E6E6"/>
<path d="M220.38 109.662L202.726 119.852C202.726 119.852 204.892 123.216 202.123 125.877L213.694 129.042L237.198 115.48L220.818 109.893" fill="#E6E6E6"/>
<path d="M210.304 130.985L198.378 127.952C198.378 127.952 192.634 130.2 187.799 128.448L170.014 138.712L166.658 151.729L171.543 153.333L210.304 130.985Z" fill="#E6E6E6"/>
<path d="M166.658 140.671L163.848 150.82L154.451 147.721L166.658 140.671Z" fill="#E6E6E6"/>
<path d="M151.85 109.686C151.706 109.686 151.565 109.649 151.441 109.578C151.316 109.507 151.212 109.405 151.139 109.281C151.027 109.093 150.995 108.868 151.049 108.655C151.103 108.443 151.24 108.261 151.428 108.149L169.106 97.7275L152.701 67.768L137.262 65.3382C137.095 65.3122 136.94 65.2356 136.818 65.1187C136.696 65.0018 136.613 64.8502 136.579 64.6845C136.546 64.5187 136.564 64.3467 136.632 64.1916C136.699 64.0366 136.813 63.906 136.957 63.8175C139.246 62.4207 140.395 61.0984 140.263 59.9826C140.13 58.8669 138.841 57.8008 136.709 56.9743C133.535 55.7511 126.973 56.1478 124.138 58.3545C123.446 58.8104 122.962 59.5207 122.79 60.3314C122.618 61.1421 122.773 61.9879 123.221 62.6852C123.282 62.7783 123.325 62.883 123.345 62.9928C123.365 63.1027 123.362 63.2155 123.338 63.3244C123.313 63.4333 123.266 63.5361 123.201 63.6265C123.135 63.7169 123.052 63.7931 122.956 63.8505L114.444 68.9994C114.272 69.0996 114.07 69.1375 113.873 69.1068L95.9804 65.9002C95.8156 65.8655 95.6639 65.7853 95.5424 65.6688L77.4923 47.4864C77.3383 47.3316 77.252 47.1221 77.252 46.9038C77.252 46.6854 77.3383 46.476 77.4923 46.3211C77.5691 46.2437 77.6605 46.1822 77.7612 46.1402C77.8619 46.0983 77.97 46.0767 78.0791 46.0767C78.1882 46.0767 78.2962 46.0983 78.3969 46.1402C78.4976 46.1822 78.589 46.2437 78.6659 46.3211L96.5837 64.3133L113.94 67.4209L121.527 62.834C121.089 61.8275 121.015 60.7003 121.316 59.6451C121.618 58.5899 122.276 57.6721 123.179 57.0487C126.485 54.5032 133.725 54.0321 137.362 55.3958C139.015 56.0239 141.758 57.4289 141.965 59.7926C142.097 61.1976 141.296 62.6026 139.577 63.9828L153.379 66.1564C153.505 66.1752 153.625 66.2231 153.73 66.2963C153.834 66.3694 153.921 66.4658 153.982 66.5779L170.966 97.6366C171.068 97.8248 171.094 98.0455 171.037 98.2521C170.98 98.4587 170.845 98.6351 170.66 98.744L152.296 109.571C152.161 109.651 152.006 109.691 151.85 109.686Z" fill="#FC4F4F"/>
<path d="M83.5409 21.7009L80.7144 20.048C79.359 19.1471 77.4912 19.2215 75.4167 20.3786C71.2844 22.7505 67.9785 28.7838 67.9785 33.8417V34.9988C67.9785 40.0568 74.7803 45.5611 74.7803 45.5611L77.5656 47.1396C77.5656 47.1396 75.9126 45.2305 76.0862 44.842C77.9044 41.0981 82.8715 30.5276 82.8715 26.3953V25.2465C82.8805 24.409 82.772 23.5744 82.5492 22.7671L82.8715 22.9489L83.5409 21.7009ZM75.4167 33.3128C73.3588 34.4947 71.6894 33.536 71.6894 31.164C72.7968 30.9904 75.582 26.2052 75.4167 24.7093C77.4746 23.5274 79.1358 24.4861 79.1358 26.8581C79.0645 28.15 78.6907 29.4071 78.0448 30.5282C77.3988 31.6494 76.4986 32.6031 75.4167 33.3128Z" fill="#A85555"/>
<path d="M83.5409 21.7009L80.7144 20.048C79.359 19.1471 77.4912 19.2215 75.4167 20.3786C71.2844 22.7505 67.9785 28.7838 67.9785 33.8417V34.9988C67.9785 40.0568 74.7803 45.5611 74.7803 45.5611L77.5656 47.1396C77.5656 47.1396 75.9126 45.2305 76.0862 44.842C77.9044 41.0981 82.8715 30.5276 82.8715 26.3953V25.2465C82.8805 24.409 82.772 23.5744 82.5492 22.7671L82.8715 22.9489L83.5409 21.7009ZM75.4167 33.3128C73.3588 34.4947 71.6894 33.536 71.6894 31.164C72.7968 30.9904 75.582 26.2052 75.4167 24.7093C77.4746 23.5274 79.1358 24.4861 79.1358 26.8581C79.0645 28.15 78.6907 29.4071 78.0448 30.5282C77.3988 31.6494 76.4986 32.6031 75.4167 33.3128Z" fill="#A85555"/>
<g opacity="0.2">
<path d="M83.5409 21.7009L80.7144 20.048C79.359 19.1471 77.4912 19.2215 75.4167 20.3786C71.2844 22.7505 67.9785 28.7838 67.9785 33.8417V34.9988C67.9785 40.0568 74.7803 45.5611 74.7803 45.5611L77.5656 47.1396C77.5656 47.1396 75.9126 45.2305 76.0862 44.842C77.9044 41.0981 82.8715 30.5276 82.8715 26.3953V25.2465C82.8805 24.409 82.772 23.5744 82.5492 22.7671L82.8715 22.9489L83.5409 21.7009ZM75.4167 33.3128C73.3588 34.4947 71.6894 33.5359 71.6894 31.164C72.7968 30.9904 75.582 26.2052 75.4167 24.7093C77.4746 23.5274 79.1358 24.4861 79.1358 26.8581C79.0645 28.15 78.6907 29.4071 78.0448 30.5282C77.3988 31.6494 76.4986 32.6031 75.4167 33.3128Z" fill="#FC4F4F"/>
</g>
<path d="M85.8393 26.9984C85.8393 21.9404 82.5334 19.7585 78.4011 22.1305C74.2688 24.5025 70.9629 30.5357 70.9629 35.6019V36.7507C70.9629 40.6516 75.3762 45.1724 77.4093 47.0485C77.5248 47.1545 77.6633 47.2322 77.8139 47.2753C77.9646 47.3184 78.1232 47.3258 78.2772 47.2969C78.4312 47.2681 78.5764 47.2037 78.7012 47.1089C78.826 47.0141 78.927 46.8916 78.9962 46.751C80.7483 43.1641 85.8559 32.3456 85.8559 28.1554L85.8393 26.9984ZM78.4011 35.0317C76.3432 36.2218 74.682 35.2548 74.682 32.8828C74.7534 31.5909 75.1271 30.3338 75.7731 29.2127C76.419 28.0916 77.3192 27.1378 78.4011 26.4281C80.459 25.2463 82.1285 26.205 82.1285 28.5852C82.0549 29.8764 81.6793 31.1324 81.032 32.252C80.3846 33.3716 79.4835 34.3237 78.4011 35.0317Z" fill="#FC4F4F"/>
<g clip-path="url(#clip0_706_473)">
<path d="M170.514 83.3962C170.514 72.0667 161.33 62.8823 150 62.8823C138.72 62.8823 129.601 71.9061 129.487 83.1858C129.402 91.705 134.511 99.0401 141.84 102.221C143.066 102.754 144.116 103.625 144.867 104.731L148.538 110.131C149.239 111.163 150.761 111.163 151.463 110.131L155.133 104.731C155.883 103.629 156.926 102.756 158.149 102.226C165.424 99.0738 170.514 91.83 170.514 83.3962Z" fill="url(#paint0_linear_706_473)"/>
<path d="M149.999 109.883C149.881 109.883 149.583 109.851 149.382 109.556L145.712 104.156C144.849 102.887 143.65 101.893 142.246 101.284C135.037 98.1548 130.43 91.055 130.509 83.1963C130.561 78.0123 132.608 73.1593 136.274 69.531C139.94 65.903 144.815 63.9048 149.999 63.9048H150C160.747 63.9048 169.491 72.6488 169.491 83.3966C169.491 91.1727 164.879 98.1958 157.742 101.289C156.346 101.894 155.151 102.885 154.287 104.157L150.617 109.556C150.416 109.851 150.118 109.883 149.999 109.883Z" fill="url(#paint1_linear_706_473)"/>
<path d="M150 96.2913C157.122 96.2913 162.895 90.518 162.895 83.3964C162.895 76.2747 157.122 70.5015 150 70.5015C142.879 70.5015 137.105 76.2747 137.105 83.3964C137.105 90.518 142.879 96.2913 150 96.2913Z" fill="url(#paint2_linear_706_473)"/>
<path d="M169.873 88.5039L157.622 76.2527C155.716 74.2204 153.007 72.9502 150.001 72.9502C144.232 72.9502 139.555 77.6272 139.555 83.3965C139.555 86.4025 140.825 89.1116 142.857 91.0174L155.769 103.929C156.432 103.203 157.241 102.62 158.15 102.227C163.904 99.7331 168.29 94.6803 169.873 88.5039Z" fill="url(#paint3_linear_706_473)"/>
<path d="M150.001 93.8427C155.77 93.8427 160.447 89.1658 160.447 83.3965C160.447 77.6272 155.77 72.9502 150.001 72.9502C144.232 72.9502 139.555 77.6272 139.555 83.3965C139.555 89.1658 144.232 93.8427 150.001 93.8427Z" fill="url(#paint4_linear_706_473)"/>
</g>
<defs>
<linearGradient id="paint0_linear_706_473" x1="137.619" y1="71.0145" x2="178.551" y2="111.946" gradientUnits="userSpaceOnUse">
<stop stop-color="#FF7044"/>
<stop offset="1" stop-color="#F92814"/>
</linearGradient>
<linearGradient id="paint1_linear_706_473" x1="145.6" y1="79.0087" x2="131.217" y2="64.625" gradientUnits="userSpaceOnUse">
<stop stop-color="#FF7044" stop-opacity="0"/>
<stop offset="1" stop-color="#FFA425"/>
</linearGradient>
<linearGradient id="paint2_linear_706_473" x1="157.776" y1="91.1719" x2="132.057" y2="65.4534" gradientUnits="userSpaceOnUse">
<stop stop-color="#FF7044"/>
<stop offset="1" stop-color="#F92814"/>
</linearGradient>
<linearGradient id="paint3_linear_706_473" x1="163.416" y1="96.8118" x2="152.018" y2="85.413" gradientUnits="userSpaceOnUse">
<stop stop-color="#F92814" stop-opacity="0"/>
<stop offset="1" stop-color="#C1272D"/>
</linearGradient>
<linearGradient id="paint4_linear_706_473" x1="147.444" y1="79.4967" x2="153.617" y2="88.9104" gradientUnits="userSpaceOnUse">
<stop stop-color="#F9F7FC"/>
<stop offset="1" stop-color="#F0DDFC"/>
</linearGradient>
<clipPath id="clip0_706_473">
<rect width="50" height="50" fill="white" transform="translate(125 62.8823)"/>
</clipPath>
</defs>
</svg>
