<svg width="15" height="11" viewBox="0 0 15 11" fill="none" xmlns="http://www.w3.org/2000/svg">
<path d="M14.4238 2.11945L5.78284 10.2686C5.71382 10.338 5.63048 10.3932 5.53795 10.431C5.44542 10.4688 5.34566 10.4883 5.24484 10.4883C5.14402 10.4883 5.04426 10.4688 4.95173 10.431C4.8592 10.3932 4.77585 10.338 4.70684 10.2686L1.04584 6.85915C0.973758 6.7917 0.916546 6.71146 0.877504 6.62305C0.838461 6.53464 0.818359 6.43982 0.818359 6.34404C0.818359 6.24827 0.838461 6.15344 0.877504 6.06503C0.916546 5.97662 0.973758 5.89638 1.04584 5.82894L1.86084 5.06006C1.92985 4.99072 2.0132 4.93546 2.10573 4.89768C2.19826 4.8599 2.29801 4.84041 2.39884 4.84041C2.49966 4.84041 2.59942 4.8599 2.69195 4.89768C2.78448 4.93546 2.86782 4.99072 2.93684 5.06006L5.24384 7.22236L12.5328 0.34584C12.6766 0.213082 12.8697 0.138733 13.0708 0.138733C13.272 0.138733 13.4651 0.213082 13.6088 0.34584L14.4238 1.11472C14.5613 1.24982 14.638 1.42983 14.638 1.61709C14.638 1.80434 14.5613 1.98435 14.4238 2.11945Z" fill="#00D27F"/>
</svg>
