<svg width="209" height="156" viewBox="0 0 209 156" fill="none" xmlns="http://www.w3.org/2000/svg">
<path d="M208.163 136.305H0V136.409H208.163V136.305Z" fill="#EBEBEB"/>
<path d="M187.305 143.004H173.517V143.108H187.305V143.004Z" fill="#EBEBEB"/>
<path d="M168.275 143.004H138.795V143.108H168.275V143.004Z" fill="#EBEBEB"/>
<path d="M122.537 139.14H114.548V139.244H122.537V139.14Z" fill="#EBEBEB"/>
<path d="M36.1167 139.84H21.8408V139.944H36.1167V139.84Z" fill="#EBEBEB"/>
<path d="M65.7792 139.84H39.8213V139.944H65.7792V139.84Z" fill="#EBEBEB"/>
<path d="M93.7322 141.597H78.4072V141.701H93.7322V141.597Z" fill="#EBEBEB"/>
<path d="M98.6697 117.737H18.2813C17.6515 117.736 17.0479 117.485 16.603 117.039C16.1581 116.594 15.9082 115.99 15.9082 115.36V2.35641C15.9137 1.73026 16.166 1.13157 16.6103 0.69036C17.0546 0.249154 17.6551 0.00107262 18.2813 0H98.6697C99.3002 0 99.9049 0.250457 100.351 0.696273C100.797 1.14209 101.047 1.74674 101.047 2.37722V115.36C101.047 115.99 100.797 116.595 100.351 117.041C99.9049 117.487 99.3002 117.737 98.6697 117.737V117.737ZM18.2813 0.0832656C17.6791 0.0843685 17.102 0.324345 16.6766 0.750523C16.2512 1.1767 16.0123 1.75425 16.0123 2.35641V115.36C16.0123 115.962 16.2512 116.54 16.6766 116.966C17.102 117.392 17.6791 117.632 18.2813 117.633H98.6697C99.2723 117.632 99.8498 117.392 100.276 116.966C100.702 116.54 100.942 115.962 100.943 115.36V2.35641C100.942 1.75387 100.702 1.17633 100.276 0.750269C99.8498 0.32421 99.2723 0.0843661 98.6697 0.0832656H18.2813Z" fill="#EBEBEB"/>
<path d="M188.725 117.737H108.332C107.702 117.736 107.098 117.485 106.653 117.04C106.207 116.594 105.956 115.99 105.955 115.36V2.35641C105.962 1.72988 106.215 1.13119 106.66 0.6901C107.105 0.249008 107.706 0.00106092 108.332 0H188.725C189.35 0.00216677 189.95 0.250732 190.393 0.691821C190.837 1.13291 191.088 1.73098 191.094 2.35641V115.36C191.094 115.989 190.845 116.592 190.401 117.038C189.956 117.483 189.354 117.735 188.725 117.737V117.737ZM108.332 0.0832656C107.73 0.0843661 107.152 0.32421 106.726 0.750269C106.3 1.17633 106.06 1.75387 106.059 2.35641V115.36C106.06 115.962 106.3 116.54 106.726 116.966C107.152 117.392 107.73 117.632 108.332 117.633H188.725C189.327 117.632 189.905 117.392 190.331 116.966C190.757 116.54 190.997 115.962 190.998 115.36V2.35641C190.997 1.75387 190.757 1.17633 190.331 0.750269C189.905 0.32421 189.327 0.0843661 188.725 0.0832656H108.332Z" fill="#EBEBEB"/>
<path d="M31.5748 57.5447L88.0703 57.5447V8.59718L31.5748 8.59718L31.5748 57.5447Z" fill="#E6E6E6"/>
<path d="M30.3131 57.5447L86.8086 57.5447V8.59718L30.3131 8.59718L30.3131 57.5447Z" fill="#F5F5F5"/>
<path d="M84.5557 55.7961V10.3457L32.569 10.3457V55.7961H84.5557Z" fill="#FAFAFA"/>
<path d="M63.7067 55.7961L73.1281 10.3457H53.4193L44.002 55.7961H63.7067Z" fill="white"/>
<path d="M33.5186 55.8002V10.3499H32.5693V55.8002H33.5186Z" fill="#E6E6E6"/>
<path d="M31.2456 47.6484L85.876 47.6484V45.3004L31.2456 45.3004V47.6484Z" fill="#F5F5F5"/>
<path d="M85.447 133.828H94.4688V94.7059H85.447V133.828Z" fill="#F0F0F0"/>
<path d="M26.5328 136.305H92.7412V133.828H26.5328V136.305Z" fill="#F0F0F0"/>
<path d="M85.4463 94.7017H24.7959V133.824H85.4463V94.7017Z" fill="#F5F5F5"/>
<path d="M81.9041 99.5186H28.3438V112.35H81.9041V99.5186Z" fill="#F0F0F0"/>
<path d="M81.9041 116.18H28.3438V129.011H81.9041V116.18Z" fill="#F0F0F0"/>
<path d="M40.688 106.813H69.5603C69.7929 106.812 70.0157 106.719 70.1802 106.554C70.3447 106.39 70.4376 106.167 70.4387 105.934V105.934C70.4376 105.701 70.3448 105.478 70.1805 105.313C70.0161 105.148 69.7933 105.054 69.5603 105.052H40.688C40.455 105.054 40.2322 105.148 40.0678 105.313C39.9034 105.478 39.8107 105.701 39.8096 105.934V105.934C39.8107 106.167 39.9036 106.39 40.0681 106.554C40.2326 106.719 40.4554 106.812 40.688 106.813V106.813Z" fill="#F5F5F5"/>
<path d="M40.688 123.474H69.5603C69.7929 123.473 70.0157 123.38 70.1802 123.216C70.3447 123.051 70.4376 122.828 70.4387 122.596V122.596C70.4387 122.362 70.3463 122.139 70.1817 121.973C70.017 121.808 69.7936 121.714 69.5603 121.713H40.688C40.4547 121.714 40.2312 121.808 40.0666 121.973C39.902 122.139 39.8096 122.362 39.8096 122.596V122.596C39.8107 122.828 39.9036 123.051 40.0681 123.216C40.2326 123.38 40.4554 123.473 40.688 123.474V123.474Z" fill="#F5F5F5"/>
<path d="M179.695 34.1805C184.833 32.765 186.589 23.4434 173.608 19.6382C176.473 29.0139 170.74 36.6368 179.695 34.1805Z" fill="#EBEBEB"/>
<path d="M180.831 38.227C184.882 33.8515 181.052 23.9512 166.464 27.9979C174.715 35.217 173.775 45.8583 180.831 38.227Z" fill="#E0E0E0"/>
<path d="M176.835 39.3512C173.446 35.9956 178.3 24.3176 189.491 29.7299C183.15 35.8041 182.767 45.2006 176.835 39.3512Z" fill="#FAFAFA"/>
<path d="M173.454 45.8876H183.317L184.062 39.2139H172.713L173.454 45.8876Z" fill="#E6E6E6"/>
<path d="M172.601 40.4086H184.175C184.37 40.4086 184.558 40.331 184.696 40.1928C184.834 40.0546 184.912 39.8671 184.912 39.6717C184.912 39.4763 184.834 39.2888 184.696 39.1506C184.558 39.0125 184.37 38.9348 184.175 38.9348H172.601C172.406 38.9348 172.218 39.0125 172.08 39.1506C171.942 39.2888 171.864 39.4763 171.864 39.6717V39.6717C171.864 39.8671 171.942 40.0546 172.08 40.1928C172.218 40.331 172.406 40.4086 172.601 40.4086V40.4086Z" fill="#E6E6E6"/>
<path d="M90.472 125.002V113.699H99.8851V102.4H109.302V91.0963H118.716V79.7931H128.133V68.494H137.546V57.1907H146.963V45.8875H156.381H208.163V136.305H90.472H81.0547V125.002H90.472Z" fill="#FAFAFA"/>
<path d="M142.255 125.002V113.699H151.672V102.4H161.085V91.0963H170.503V79.7931H179.916V68.494H189.333V57.1907H198.746V45.8875H208.164V57.1907V136.305H142.255H132.842V125.002H142.255Z" fill="#F2F2F2"/>
<path d="M132.842 125.002H80.501V128.391H132.842V125.002Z" fill="#EBEBEB"/>
<path d="M142.259 113.699H89.918V117.088H142.259V113.699Z" fill="#EBEBEB"/>
<path d="M151.672 102.4H99.3311V105.789H151.672V102.4Z" fill="#EBEBEB"/>
<path d="M161.09 91.0964H108.749V94.4853H161.09V91.0964Z" fill="#EBEBEB"/>
<path d="M170.503 79.7932H118.162V83.1821H170.503V79.7932Z" fill="#EBEBEB"/>
<path d="M179.92 68.4941H127.579V71.883H179.92V68.4941Z" fill="#EBEBEB"/>
<path d="M189.333 57.1907H136.992V60.5796H189.333V57.1907Z" fill="#EBEBEB"/>
<path d="M198.75 45.8875H146.409V49.2763H198.75V45.8875Z" fill="#EBEBEB"/>
<path d="M104.082 155.107C148.663 155.107 184.803 152.997 184.803 150.394C184.803 147.791 148.663 145.681 104.082 145.681C59.5006 145.681 23.3604 147.791 23.3604 150.394C23.3604 152.997 59.5006 155.107 104.082 155.107Z" fill="#F5F5F5"/>
<path opacity="0.2" d="M99.4105 92.8857C92.357 95.6259 84.6494 96.2131 77.2623 94.5729C69.8751 92.9327 63.1402 89.1389 57.9092 83.6711C52.6782 78.2033 49.186 71.3071 47.8742 63.8547C46.5624 56.4022 47.49 48.7281 50.5396 41.8028C53.5892 34.8774 58.6238 29.0119 65.0069 24.9479C71.39 20.8839 78.8349 18.8039 86.4001 18.971C93.9653 19.1381 101.311 21.5447 107.509 25.8865C113.706 30.2284 118.477 36.3104 121.218 43.3636C123.038 48.0471 123.918 53.0434 123.808 58.067C123.697 63.0907 122.598 68.0433 120.573 72.6421C118.548 77.2408 115.636 81.3956 112.005 84.869C108.374 88.3424 104.095 91.0665 99.4105 92.8857V92.8857Z" fill="#00D27F"/>
<path d="M54.0562 31.4483C59.1544 25.2189 65.9853 20.6411 73.6852 18.2939C81.385 15.9466 89.608 15.9354 97.3143 18.2615C105.021 20.5877 111.864 25.1468 116.979 31.3623C122.094 37.5778 125.252 45.1705 126.052 53.1804C126.852 61.1902 125.258 69.2574 121.474 76.3618C117.689 83.4662 111.882 89.2887 104.788 93.0931C97.6942 96.8974 89.6315 98.5127 81.6194 97.7348C73.6074 96.9568 66.0061 93.8204 59.7765 88.7224C51.4239 81.8853 46.1289 72.0105 45.0561 61.2699C43.9834 50.5293 47.2208 39.8023 54.0562 31.4483V31.4483ZM114.473 80.8913C119.153 75.1708 122.032 68.1912 122.745 60.835C123.458 53.4788 121.974 46.0762 118.48 39.5635C114.986 33.0507 109.639 27.7203 103.116 24.2461C96.5928 20.7719 89.1859 19.31 81.8318 20.0453C74.4777 20.7806 67.5069 23.68 61.8006 28.377C56.0943 33.0739 51.909 39.3574 49.7737 46.433C47.6385 53.5086 47.6493 61.0584 49.8047 68.1278C51.9602 75.1973 56.1635 81.4688 61.8831 86.1495C65.6814 89.2577 70.0547 91.5873 74.7533 93.0052C79.4519 94.4232 84.3839 94.9017 89.2674 94.4134C94.151 93.9251 98.8906 92.4796 103.215 90.1595C107.54 87.8393 111.366 84.69 114.473 80.8913V80.8913Z" fill="#00D27F"/>
<path d="M118.066 80.7498C122.075 83.1437 125.889 85.7749 129.636 88.4893C133.383 91.2038 137.034 94.0307 140.627 96.9324C144.22 99.8342 147.746 102.819 151.148 105.954C152.852 107.52 154.517 109.127 156.143 110.775C157.775 112.441 159.378 114.106 160.89 115.913C161.239 116.331 161.431 116.858 161.434 117.403C161.437 117.948 161.249 118.477 160.905 118.898C160.56 119.32 160.078 119.609 159.544 119.714C159.009 119.82 158.455 119.736 157.975 119.477C155.894 118.352 153.945 117.112 152.001 115.842C150.057 114.572 148.158 113.248 146.285 111.887C142.538 109.172 138.912 106.312 135.36 103.361C131.809 100.409 128.312 97.3904 124.911 94.2513C121.509 91.1122 118.174 87.8982 115.035 84.4427C114.643 84.0153 114.419 83.4609 114.402 82.8812C114.386 82.3015 114.579 81.7354 114.947 81.2866C115.314 80.8378 115.831 80.5365 116.402 80.4379C116.974 80.3393 117.561 80.4501 118.058 80.7498H118.066Z" fill="#00D27F"/>
</svg>
