<svg width="113" height="90" viewBox="0 0 113 90" fill="none" xmlns="http://www.w3.org/2000/svg">
<path d="M83.7462 10.1466V79.8534C83.7462 85.4475 79.1937 90 73.5996 90H37.7169C32.1228 90 27.5703 85.4475 27.5703 79.8534V10.1466C27.5703 4.55246 32.1228 0 37.7169 0H73.5996C79.1937 0 83.7462 4.55246 83.7462 10.1466Z" fill="#FFF5CB"/>
<path d="M83.7462 10.1466V79.8534C83.7462 85.4475 79.1938 90 73.5997 90H55.6562V0H73.5997C79.1938 0 83.7462 4.55246 83.7462 10.1466Z" fill="#FFEDA0"/>
<path d="M73.5996 0H37.7169C32.1228 0 27.5703 4.55246 27.5703 10.1466V79.8534C27.5703 85.4475 32.1228 90 37.7169 90H73.5996C79.1937 90 83.7462 85.4475 83.7462 79.8534V10.1466C83.7462 4.55246 79.1937 0 73.5996 0V0ZM78.4707 79.8534C78.4707 82.5389 76.2851 84.7245 73.5996 84.7245H37.7169C35.0314 84.7245 32.8458 82.5389 32.8458 79.8534V10.1466C32.8458 7.46109 35.0314 5.2755 37.7169 5.2755H42.5351V8.09967C42.5351 10.8902 44.8051 13.1602 47.5956 13.1602H63.7208C66.5114 13.1602 68.7814 10.8902 68.7814 8.09967V5.2755H73.5996C76.2851 5.2755 78.4707 7.46109 78.4707 10.1466V79.8534Z" fill="#F9D121"/>
<path d="M63.4732 77.198C63.4732 78.6557 62.2915 79.836 60.8351 79.836H50.4818C49.0255 79.836 47.8438 78.6557 47.8438 77.198C47.8438 75.7423 49.0255 74.5605 50.4818 74.5605H60.8351C62.2915 74.5605 63.4732 75.7423 63.4732 77.198Z" fill="#F9D121"/>
<path d="M83.7462 10.1466V79.8534C83.7462 85.4475 79.1938 90 73.5997 90H55.6562V84.7245H73.5997C76.2851 84.7245 78.4707 82.5389 78.4707 79.8534V10.1466C78.4707 7.46109 76.2851 5.2755 73.5997 5.2755H68.7815V8.09967C68.7815 10.8902 66.5114 13.1602 63.7209 13.1602H55.6562V0H73.5997C79.1938 0 83.7462 4.55246 83.7462 10.1466Z" fill="#DEC029"/>
<path d="M63.473 77.198C63.473 78.6557 62.2913 79.836 60.8349 79.836H55.6562V74.5605H60.8349C62.2913 74.5605 63.473 75.7423 63.473 77.198Z" fill="#DEC029"/>
<path d="M108.763 36.1608V45.9963C108.763 52.6307 103.366 58.0277 96.7314 58.0277H73.4336L64.9487 62.311C64.4461 62.6063 63.8816 62.756 63.3152 62.756C62.807 62.756 62.2955 62.6344 61.8238 62.39C60.7498 61.831 60.0811 60.7317 60.0811 59.5219V36.1608C60.0811 29.5264 65.4795 24.1294 72.1125 24.1294H96.7314C103.366 24.1294 108.763 29.5264 108.763 36.1608Z" fill="#FF9900"/>
<path d="M108.763 36.1608V45.9963C108.763 52.6307 103.366 58.0277 96.7315 58.0277H83.7471V24.1294H96.7315C103.366 24.1294 108.763 29.5264 108.763 36.1608Z" fill="#FD9C14"/>
<path d="M98.6011 36.1921C98.6011 37.6498 97.4194 38.8302 95.9637 38.8302H72.8835C71.4258 38.8302 70.2461 37.6498 70.2461 36.1921C70.2461 34.7364 71.4258 33.5547 72.8835 33.5547H95.9637C97.4194 33.5547 98.6011 34.7364 98.6011 36.1921Z" fill="white"/>
<path d="M98.6001 45.2009C98.6001 46.6566 97.4184 47.8383 95.9627 47.8383H84.4216C84.1874 47.8383 83.9629 47.8088 83.7466 47.7504C82.6178 47.4538 81.7842 46.4231 81.7842 45.2009C81.7842 43.9773 82.6178 42.948 83.7466 42.6514C83.9629 42.593 84.1874 42.5635 84.4216 42.5635H95.9627C97.4184 42.5635 98.6001 43.7431 98.6001 45.2009Z" fill="white"/>
<path d="M98.5996 45.2009C98.5996 46.6566 97.4179 47.8383 95.9622 47.8383H84.4211C84.1869 47.8383 83.9624 47.8088 83.7461 47.7504V42.6514C83.9624 42.593 84.1869 42.5635 84.4211 42.5635H95.9622C97.4179 42.5635 98.5996 43.7431 98.5996 45.2009Z" fill="#ECECEC"/>
<path d="M95.9622 38.8302H83.7461V33.5547H95.9622C97.4179 33.5547 98.5996 34.7364 98.5996 36.1921C98.5996 37.6498 97.4179 38.8302 95.9622 38.8302Z" fill="#ECECEC"/>
</svg>
