<svg width="14" height="15" viewBox="0 0 14 15" fill="none" xmlns="http://www.w3.org/2000/svg">
<path d="M5.9064 13.494C5.8803 13.494 5.85527 13.4837 5.83682 13.4652C5.81837 13.4468 5.808 13.4217 5.808 13.3956C5.808 13.3695 5.81837 13.3445 5.83682 13.3261C5.85527 13.3076 5.8803 13.2972 5.9064 13.2972H12.7598C12.7859 13.2972 12.8109 13.3076 12.8294 13.3261C12.8478 13.3445 12.8582 13.3695 12.8582 13.3956C12.8582 13.4217 12.8478 13.4468 12.8294 13.4652C12.8109 13.4837 12.7859 13.494 12.7598 13.494H5.9064ZM0.733435 13.5045C0.708872 13.5023 0.686029 13.4909 0.669394 13.4727C0.652758 13.4545 0.643535 13.4307 0.643535 13.4061C0.643535 13.3814 0.652758 13.3576 0.669394 13.3394C0.686029 13.3212 0.708872 13.3099 0.733435 13.3077H1.94796C1.97252 13.3099 1.99536 13.3212 2.012 13.3394C2.02863 13.3576 2.03786 13.3814 2.03786 13.4061C2.03786 13.4307 2.02863 13.4545 2.012 13.4727C1.99536 13.4909 1.97252 13.5023 1.94796 13.5045H0.733435ZM3.94646 3.23566V1.98018H12.3204C12.1565 2.41822 11.9878 2.83671 11.8143 3.23566H3.94646ZM3.94646 4.68795V3.43246H11.7284C11.5319 3.87479 11.3308 4.29328 11.1251 4.68795H3.94646ZM3.94646 6.14024V4.88475H11.0223C10.783 5.3335 10.5398 5.752 10.293 6.14024H3.94646ZM3.94646 7.59252V6.33784H10.1669C9.86725 6.7973 9.56523 7.21419 9.2632 7.59332L3.94646 7.59252ZM3.94646 9.04481V7.79012H9.10336C8.73958 8.23317 8.34786 8.65252 7.9306 9.04561L3.94646 9.04481ZM3.94646 10.4971V9.24241H7.71613C7.18704 9.71898 6.61019 10.1397 5.99476 10.4979L3.94646 10.4971ZM14 12.4594V11.4771H4.04365C4.03071 11.4771 4.01791 11.4745 4.00596 11.4695C3.99402 11.4646 3.98318 11.4573 3.97407 11.4481C3.96496 11.4389 3.95776 11.428 3.95288 11.416C3.948 11.404 3.94555 11.3912 3.94565 11.3783V10.6947H5.63249C5.12987 10.9708 4.58817 11.1688 4.02598 11.2819C4.00109 11.2867 3.97903 11.3009 3.96443 11.3216C3.94982 11.3424 3.94381 11.3679 3.94766 11.393C3.95151 11.418 3.96491 11.4406 3.98505 11.456C4.0052 11.4714 4.03052 11.4783 4.0557 11.4755C4.75504 11.3305 5.42425 11.0664 6.03412 10.6947H13.7542C13.7803 10.6947 13.8053 10.6843 13.8238 10.6659C13.8422 10.6474 13.8526 10.6224 13.8526 10.5963C13.8526 10.5702 13.8422 10.5452 13.8238 10.5267C13.8053 10.5083 13.7803 10.4979 13.7542 10.4979H6.36426C6.94784 10.1317 7.49567 9.7113 8.00049 9.24241H13.7574C13.782 9.24019 13.8048 9.22886 13.8215 9.21065C13.8381 9.19244 13.8473 9.16867 13.8473 9.14401C13.8473 9.11935 13.8381 9.09558 13.8215 9.07737C13.8048 9.05916 13.782 9.04783 13.7574 9.04561H8.20773C8.61425 8.65083 8.99624 8.23155 9.35156 7.79012H13.7574C13.7835 7.79012 13.8085 7.77976 13.827 7.7613C13.8455 7.74285 13.8558 7.71782 13.8558 7.69172C13.8558 7.66563 13.8455 7.6406 13.827 7.62215C13.8085 7.60369 13.7835 7.59332 13.7574 7.59332H9.5082C9.8054 7.21258 10.1034 6.79489 10.3974 6.33784H13.7574C13.7835 6.33784 13.8085 6.32747 13.827 6.30902C13.8455 6.29056 13.8558 6.26554 13.8558 6.23944C13.8558 6.21334 13.8455 6.18831 13.827 6.16986C13.8085 6.15141 13.7835 6.14104 13.7574 6.14104H10.5211C10.7621 5.75066 11.0031 5.33296 11.244 4.88555H13.7598C13.7844 4.88333 13.8072 4.872 13.8239 4.85379C13.8405 4.83559 13.8497 4.81182 13.8497 4.78715C13.8497 4.76249 13.8405 4.73872 13.8239 4.72051C13.8072 4.7023 13.7844 4.69098 13.7598 4.68875H11.3501C11.553 4.29355 11.752 3.87506 11.9469 3.43327H13.763C13.7891 3.43327 13.8142 3.4229 13.8326 3.40445C13.8511 3.38599 13.8614 3.36096 13.8614 3.33487C13.8614 3.30877 13.8511 3.28374 13.8326 3.26529C13.8142 3.24684 13.7891 3.23647 13.763 3.23647H12.0272C12.1986 2.83752 12.3659 2.41902 12.5292 1.98098H13.7566C13.7827 1.98098 13.8077 1.97061 13.8262 1.95216C13.8446 1.93371 13.855 1.90868 13.855 1.88258C13.855 1.85648 13.8446 1.83146 13.8262 1.813C13.8077 1.79455 13.7827 1.78418 13.7566 1.78418H12.5999C12.7606 1.33811 12.9167 0.871684 13.0682 0.384911L13.2289 0.759228C13.2341 0.771095 13.2417 0.781808 13.2511 0.790754C13.2605 0.799699 13.2716 0.806702 13.2837 0.811363C13.2959 0.816025 13.3088 0.818254 13.3218 0.817922C13.3347 0.817591 13.3475 0.814706 13.3594 0.809431C13.3713 0.804157 13.382 0.796598 13.3909 0.787184C13.3999 0.77777 13.4069 0.766687 13.4115 0.754566C13.4162 0.742445 13.4184 0.729525 13.4181 0.716543C13.4178 0.70356 13.4149 0.690771 13.4096 0.678904C13.3325 0.453841 13.236 0.23588 13.1212 0.027463C13.1098 0.0168047 13.096 0.00884671 13.0811 0.00416912C13.0625 -0.00138971 13.0427 -0.00138971 13.024 0.00416912C12.8154 0.108078 12.6134 0.224772 12.4192 0.353585C12.408 0.360019 12.3982 0.368593 12.3903 0.378817C12.3825 0.38904 12.3767 0.400714 12.3733 0.413171C12.37 0.425627 12.3691 0.438622 12.3708 0.451415C12.3724 0.464207 12.3766 0.476547 12.383 0.487728C12.3895 0.49891 12.3981 0.508714 12.4083 0.516582C12.4185 0.52445 12.4302 0.530227 12.4426 0.533584C12.4551 0.53694 12.4681 0.537811 12.4809 0.536145C12.4937 0.534479 12.506 0.530309 12.5172 0.523875L12.8851 0.309406C12.7244 0.822953 12.5598 1.31321 12.3911 1.78017H3.94565V1.29018H2.96167V1.78659H1.66039C1.6343 1.78659 1.60927 1.79696 1.59081 1.81541C1.57236 1.83387 1.56199 1.85889 1.56199 1.88499C1.56199 1.91109 1.57236 1.93612 1.59081 1.95457C1.60927 1.97302 1.6343 1.98339 1.66039 1.98339H2.96167V3.23888H1.66039C1.6343 3.23888 1.60927 3.24925 1.59081 3.2677C1.57236 3.28615 1.56199 3.31118 1.56199 3.33728C1.56199 3.36337 1.57236 3.3884 1.59081 3.40686C1.60927 3.42531 1.6343 3.43568 1.66039 3.43568H2.96167V4.68795H1.66039C1.63583 4.69017 1.61299 4.7015 1.59635 4.71971C1.57971 4.73792 1.57049 4.76169 1.57049 4.78635C1.57049 4.81101 1.57971 4.83478 1.59635 4.85299C1.61299 4.8712 1.63583 4.88253 1.66039 4.88475H2.96167V6.14024H1.66039C1.6343 6.14024 1.60927 6.1506 1.59081 6.16906C1.57236 6.18751 1.56199 6.21254 1.56199 6.23864C1.56199 6.26473 1.57236 6.28976 1.59081 6.30822C1.60927 6.32667 1.6343 6.33703 1.66039 6.33703H2.96167V7.59252H1.66039C1.6343 7.59252 1.60927 7.60289 1.59081 7.62134C1.57236 7.6398 1.56199 7.66482 1.56199 7.69092C1.56199 7.71702 1.57236 7.74205 1.59081 7.7605C1.60927 7.77895 1.6343 7.78932 1.66039 7.78932H2.96167V9.04481H1.66039C1.63583 9.04703 1.61299 9.05836 1.59635 9.07657C1.57971 9.09477 1.57049 9.11854 1.57049 9.14321C1.57049 9.16787 1.57971 9.19164 1.59635 9.20985C1.61299 9.22806 1.63583 9.23938 1.66039 9.24161H2.96167V10.4971H1.66039C1.6343 10.4971 1.60927 10.5075 1.59081 10.5259C1.57236 10.5444 1.56199 10.5694 1.56199 10.5955C1.56199 10.6216 1.57236 10.6466 1.59081 10.6651C1.60927 10.6835 1.6343 10.6939 1.66039 10.6939H2.96167V11.3775C2.96177 11.3905 2.95929 11.4034 2.95436 11.4154C2.94944 11.4274 2.94216 11.4384 2.93297 11.4476C2.92377 11.4568 2.91284 11.464 2.9008 11.469C2.88877 11.4739 2.87587 11.4764 2.86287 11.4763H1.94073V12.4602H2.86367C2.87654 12.4601 2.8893 12.4626 2.90123 12.4674C2.91316 12.4722 2.92402 12.4794 2.9332 12.4884C2.94237 12.4974 2.94968 12.5082 2.9547 12.52C2.95973 12.5319 2.96236 12.5446 2.96247 12.5574V13.3446H3.94646V12.5574C3.94667 12.5316 3.95709 12.5069 3.97544 12.4887C3.9938 12.4705 4.0186 12.4602 4.04445 12.4602H13.9992L14 12.4594ZM0.1077 14.0378C0.0940305 14.0391 0.0802541 14.0375 0.0672479 14.0331C0.0542417 14.0287 0.0422912 14.0216 0.0321585 14.0124C0.0220259 14.0031 0.0139327 13.9919 0.00839584 13.9793C0.00285898 13.9667 0 13.9532 0 13.9394C0 13.9257 0.00285898 13.9121 0.00839584 13.8996C0.0139327 13.887 0.0220259 13.8758 0.0321585 13.8665C0.0422912 13.8572 0.0542417 13.8502 0.0672479 13.8458C0.0802541 13.8414 0.0940305 13.8398 0.1077 13.841H10.011C10.0247 13.8398 10.0385 13.8414 10.0515 13.8458C10.0645 13.8502 10.0764 13.8572 10.0866 13.8665C10.0967 13.8758 10.1048 13.887 10.1103 13.8996C10.1159 13.9121 10.1187 13.9257 10.1187 13.9394C10.1187 13.9532 10.1159 13.9667 10.1103 13.9793C10.1048 13.9919 10.0967 14.0031 10.0866 14.0124C10.0764 14.0216 10.0645 14.0287 10.0515 14.0331C10.0385 14.0375 10.0247 14.0391 10.011 14.0378H0.1077Z" fill="white"/>
</svg>
