<svg width="14" height="11" viewBox="0 0 14 11" fill="none" xmlns="http://www.w3.org/2000/svg">
<path d="M12.7944 4.24915L12.4664 3.44458L11.8848 2.01694C11.6442 1.42033 11.2262 0.908774 10.6852 0.548989C10.1442 0.189204 9.50535 -0.00210394 8.852 1.74535e-05H5.148C4.49467 -0.00199619 3.85588 0.189355 3.3149 0.549126C2.77392 0.908897 2.35586 1.4204 2.1152 2.01694L1.5336 3.4438L1.2056 4.24837C0.851639 4.37939 0.54669 4.61315 0.331326 4.91857C0.115962 5.22399 0.000394383 5.58657 0 5.95808L0 7.33308C0.00129889 7.77595 0.167143 8.20314 0.4664 8.53443V10.0831C0.4664 10.3263 0.564761 10.5595 0.739845 10.7314C0.914929 10.9034 1.15239 11 1.4 11H2.3336C2.58121 11 2.81867 10.9034 2.99376 10.7314C3.16884 10.5595 3.2672 10.3263 3.2672 10.0831V9.16693H10.7336V10.0839C10.7338 10.3268 10.8322 10.5597 11.007 10.7314C11.1819 10.9032 11.4191 10.9998 11.6664 11H12.6C12.7226 11 12.844 10.9763 12.9573 10.9302C13.0705 10.8841 13.1735 10.8166 13.2602 10.7314C13.3468 10.6463 13.4156 10.5452 13.4625 10.434C13.5095 10.3227 13.5336 10.2035 13.5336 10.0831V8.53443C13.8329 8.20318 13.9988 7.77597 14 7.33308V5.95808C13.9994 5.58671 13.8838 5.22429 13.6684 4.91903C13.4531 4.61377 13.1482 4.38012 12.7944 4.24915ZM3.848 2.69737C3.95193 2.44221 4.13133 2.22349 4.36305 2.06944C4.59477 1.91538 4.86818 1.83306 5.148 1.83309H8.852C9.13182 1.83306 9.40523 1.91538 9.63695 2.06944C9.86867 2.22349 10.0481 2.44221 10.152 2.69737L10.7336 4.12501H3.2664L3.848 2.69737ZM2.3336 7.32758C2.20924 7.33525 2.08465 7.31689 1.96805 7.27372C1.85146 7.23056 1.74553 7.16357 1.65727 7.07718C1.56901 6.9908 1.50044 6.88699 1.45609 6.77263C1.41174 6.65826 1.39262 6.53595 1.4 6.41379C1.39262 6.29163 1.41174 6.16932 1.45609 6.05496C1.50044 5.9406 1.56901 5.83679 1.65727 5.75041C1.74553 5.66402 1.85146 5.59703 1.96805 5.55386C2.08465 5.5107 2.20924 5.49234 2.3336 5.50001C2.67794 5.56896 2.99413 5.73561 3.24298 5.97932C3.49183 6.22303 3.66241 6.53308 3.7336 6.87108C3.7336 7.41872 2.8936 7.32758 2.3336 7.32758ZM11.6672 7.32758C11.1072 7.32758 10.2672 7.41872 10.2672 6.87029C10.3384 6.5323 10.509 6.22224 10.7578 5.97853C11.0067 5.73482 11.3229 5.56817 11.6672 5.49922C11.7916 5.49155 11.9162 5.50991 12.0327 5.55308C12.1493 5.59624 12.2553 5.66323 12.3435 5.74962C12.4318 5.836 12.5004 5.93981 12.5447 6.05417C12.5891 6.16854 12.6082 6.29084 12.6008 6.41301C12.6083 6.5353 12.5893 6.65777 12.5449 6.77229C12.5006 6.8868 12.4319 6.99075 12.3436 7.07723C12.2552 7.16372 12.1492 7.23076 12.0324 7.27392C11.9157 7.31708 11.7917 7.33537 11.6672 7.32758Z" fill="white"/>
</svg>
