<svg width="14" height="14" viewBox="0 0 14 14" fill="none" xmlns="http://www.w3.org/2000/svg">
<path d="M10.9555 7.21947V5.15247C10.9555 4.14743 10.5323 3.18356 9.77901 2.47289C9.02571 1.76223 8.00402 1.36298 6.93869 1.36298C5.87336 1.36298 4.85167 1.76223 4.09837 2.47289C3.34507 3.18356 2.92188 4.14743 2.92188 5.15247V7.21947C2.92188 8.2245 3.34507 9.18838 4.09837 9.89905C4.85167 10.6097 5.87336 11.009 6.93869 11.009C8.00402 11.009 9.02571 10.6097 9.77901 9.89905C10.5323 9.18838 10.9555 8.2245 10.9555 7.21947ZM5.58393 8.35287C5.61788 8.32058 5.65826 8.29495 5.70276 8.27746C5.74726 8.25997 5.79499 8.25097 5.8432 8.25097C5.8914 8.25097 5.93913 8.25997 5.98363 8.27746C6.02813 8.29495 6.06852 8.32058 6.10246 8.35287C6.21207 8.45682 6.34237 8.53932 6.48588 8.59561C6.62939 8.65189 6.78327 8.68087 6.93869 8.68087C7.09411 8.68087 7.24799 8.65189 7.3915 8.59561C7.53501 8.53932 7.66531 8.45682 7.77492 8.35287C7.84368 8.288 7.93694 8.25156 8.03419 8.25156C8.13143 8.25156 8.22469 8.288 8.29345 8.35287C8.36221 8.41774 8.40084 8.50573 8.40084 8.59747C8.40084 8.68921 8.36221 8.77719 8.29345 8.84206C7.02633 10.0237 4.98506 8.91785 5.58393 8.35287Z" fill="white"/>
<path d="M12.7808 4.46313H12.3645C12.1841 3.22629 11.5352 2.09289 10.5377 1.27245C9.54015 0.452002 8.26151 0 6.93814 0C5.61475 0 4.33612 0.452002 3.33861 1.27245C2.3411 2.09289 1.69217 3.22629 1.51178 4.46313H1.09549C0.804952 4.46313 0.526308 4.57201 0.320863 4.76583C0.115418 4.95965 0 5.22253 0 5.49663V7.56363C0 7.83773 0.115418 8.1006 0.320863 8.29442C0.526308 8.48824 0.804952 8.59712 1.09549 8.59712H2.19099C2.28784 8.59712 2.38072 8.56083 2.4492 8.49622C2.51768 8.43162 2.55615 8.34399 2.55615 8.25262V4.80763C2.55728 4.72506 2.52693 4.64485 2.47063 4.58162C2.41433 4.51838 2.33582 4.47633 2.24942 4.46313C2.42621 3.40989 2.99556 2.45073 3.85507 1.75817C4.71457 1.06561 5.8078 0.685113 6.93814 0.685113C8.06847 0.685113 9.1617 1.06561 10.0212 1.75817C10.8807 2.45073 11.4501 3.40989 11.6269 4.46313C11.5404 4.47633 11.4619 4.51838 11.4056 4.58162C11.3493 4.64485 11.319 4.72506 11.3201 4.80763V8.25262C11.3201 8.34399 11.3586 8.43162 11.4271 8.49622C11.4956 8.56083 11.5884 8.59712 11.6853 8.59712C11.6856 9.48284 11.357 10.3407 10.7566 11.0216C10.1562 11.7025 9.32199 12.1636 8.3988 12.3246C8.41488 12.2027 8.40324 12.079 8.36467 11.9617C8.3261 11.8443 8.26148 11.7361 8.1751 11.6442C8.08873 11.5523 7.98258 11.4788 7.86374 11.4286C7.7449 11.3784 7.61609 11.3527 7.48588 11.3531H6.75555C6.51343 11.3531 6.28123 11.4439 6.11003 11.6054C5.93882 11.7669 5.84264 11.986 5.84264 12.2144C5.84264 12.4428 5.93882 12.6618 6.11003 12.8234C6.28123 12.9849 6.51343 13.0756 6.75555 13.0756H7.66846C8.92749 13.0756 10.1349 12.6038 11.0252 11.7639C11.9155 10.924 12.4156 9.78489 12.4156 8.59712H12.7808C13.0713 8.59712 13.35 8.48824 13.5554 8.29442C13.7609 8.1006 13.8763 7.83773 13.8763 7.56363V5.49663C13.8763 5.22253 13.7609 4.95965 13.5554 4.76583C13.35 4.57201 13.0713 4.46313 12.7808 4.46313Z" fill="white"/>
</svg>
