<svg width="21" height="20" viewBox="0 0 21 20" fill="none" xmlns="http://www.w3.org/2000/svg">
<path d="M19.8593 6.37009L12.9293 0.830093C11.8593 -0.0299066 10.1293 -0.0299066 9.06929 0.820093L2.13929 6.37009C1.35929 6.99009 0.859288 8.30009 1.02929 9.28009L2.35929 17.2401C2.59929 18.6601 3.95929 19.8101 5.39929 19.8101H16.5993C18.0293 19.8101 19.3993 18.6501 19.6393 17.2401L20.9693 9.28009C21.1293 8.30009 20.6293 6.99009 19.8593 6.37009ZM10.9993 13.5001C9.61929 13.5001 8.49929 12.3801 8.49929 11.0001C8.49929 9.62009 9.61929 8.50009 10.9993 8.50009C12.3793 8.50009 13.4993 9.62009 13.4993 11.0001C13.4993 12.3801 12.3793 13.5001 10.9993 13.5001Z" fill="#00D27F"/>
</svg>
