<svg width="14" height="14" viewBox="0 0 14 14" fill="none" xmlns="http://www.w3.org/2000/svg">
<path d="M3.79461 3.74609H3.61906L3.29102 5.38672H4.12265L3.79461 3.74609Z" fill="white"/>
<path d="M10.4277 7.02734C10.6048 7.5031 10.8404 7.88821 11.1011 8.21589C11.3618 7.88821 11.6247 7.50307 11.8018 7.02734H10.4277Z" fill="white"/>
<path d="M12.769 2.48828H7.67531L8.73739 11.0108C8.75618 11.3593 8.66088 11.6875 8.43338 11.9444L6.63477 14H12.769C13.4475 14 13.9994 13.448 13.9994 12.7695V3.74609C13.9994 3.06759 13.4475 2.48828 12.769 2.48828ZM12.769 7.02734H12.6594C12.4261 7.7761 12.056 8.36199 11.6713 8.82388C11.9726 9.09934 12.2948 9.32531 12.6152 9.57841C12.7918 9.7198 12.8207 9.97773 12.6789 10.1548C12.5377 10.3316 12.2788 10.3602 12.1025 10.2185C11.7544 9.94375 11.4277 9.71378 11.101 9.41399C10.7743 9.71378 10.4749 9.94375 10.1269 10.2185C9.95061 10.3602 9.69166 10.3316 9.55051 10.1548C9.40871 9.97773 9.43756 9.7198 9.6142 9.57841C9.93453 9.32531 10.2294 9.09934 10.5307 8.82388C10.1461 8.36202 9.80328 7.77612 9.56993 7.02734H9.46039C9.23368 7.02734 9.05023 6.84389 9.05023 6.61719C9.05023 6.39048 9.23368 6.20703 9.46039 6.20703H10.6909V5.79688C10.6909 5.57017 10.8743 5.38672 11.101 5.38672C11.3277 5.38672 11.5112 5.57017 11.5112 5.79688V6.20703H12.769C12.9957 6.20703 13.1791 6.39048 13.1791 6.61719C13.1791 6.84389 12.9957 7.02734 12.769 7.02734Z" fill="white"/>
<path d="M6.67636 1.07786C6.59985 0.463422 6.07474 0 5.45552 0H1.23047C0.551961 0 0 0.551961 0 1.23047V10.3086C0 10.9871 0.551961 11.5391 1.23047 11.5391C3.68238 11.5391 5.44625 11.5391 7.69866 11.5391C7.81832 11.4023 7.91861 11.3166 7.92285 11.1381C7.92389 11.0934 6.68191 1.12227 6.67636 1.07786ZM5.02972 7.83964C4.81223 7.88441 4.59192 7.7432 4.54707 7.518L4.28493 6.20703H3.12525L2.86311 7.518C2.81906 7.73989 2.60515 7.88569 2.38046 7.83964C2.15857 7.79518 2.01436 7.5793 2.05882 7.357L2.87911 3.25544C2.91755 3.06398 3.0858 2.92578 3.28125 2.92578H4.12891C4.32436 2.92578 4.49261 3.06398 4.53105 3.25544L5.35136 7.357C5.39582 7.5793 5.25164 7.79518 5.02972 7.83964Z" fill="white"/>
<path d="M4.79297 12.3594L4.86335 12.9221C4.91027 13.299 5.16069 13.6833 5.57259 13.8752C6.34992 13.0195 5.87964 13.5372 6.9496 12.3594H4.79297Z" fill="white"/>
</svg>
