<svg width="20" height="20" viewBox="0 0 20 20" fill="none" xmlns="http://www.w3.org/2000/svg">
<path d="M12.5352 18.3345C12.1008 19.3113 11.1376 20.0001 10.0008 20.0001C8.86398 20.0001 7.90078 19.3113 7.46637 18.3345C8.26797 18.3737 9.10156 18.4001 10.0008 18.4001C10.9 18.4001 11.7336 18.3737 12.5352 18.3345Z" fill="#E0E0E0"/>
<path d="M1.17671 14.1C2.23113 12.7704 4.0007 10.1568 4.0007 7.6C4.0007 5.0648 5.62949 2.78398 8.0007 1.94559C8.02949 0.867187 8.91589 0 9.99992 0C11.0847 0 11.9703 0.867187 11.9991 1.94559C14.3711 2.78398 15.9999 5.0648 15.9999 7.6C15.9999 10.1576 17.7687 12.7704 18.8239 14.1C19.1759 14.544 19.2847 15.1304 19.1143 15.6688C18.9479 16.1944 18.5335 16.6016 18.0055 16.7568C17.0807 17.0296 15.5647 17.3368 13.2527 17.4936C12.2519 17.5608 11.1759 17.6 9.99988 17.6C8.82468 17.6 7.74867 17.5608 6.74789 17.4936C4.43507 17.3368 2.91988 17.0296 1.99429 16.7568C1.46628 16.6016 1.05269 16.1944 0.886283 15.6688C0.715893 15.1304 0.825503 14.544 1.17671 14.1Z" fill="#E0E0E0"/>
</svg>
