<svg width="18" height="20" viewBox="0 0 18 20" fill="none" xmlns="http://www.w3.org/2000/svg">
<path d="M16.9634 6.66857C16.8277 6.51571 16.6334 6.42857 16.4291 6.42857H12.8577V4.28571C12.8577 1.92214 10.9355 0 8.57196 0C6.20839 0 4.28625 1.92214 4.28625 4.28571V6.42857H0.71482C0.510534 6.42857 0.316248 6.51571 0.180534 6.66857C0.0448196 6.82143 -0.0187517 7.025 0.00481969 7.22714L1.22125 17.4579C1.38268 18.9071 2.60339 20 4.06125 20H13.0827C14.5412 20 15.7612 18.9071 15.922 17.4636L17.1391 7.22714C17.1627 7.02429 17.0984 6.82143 16.9634 6.66857V6.66857ZM5.71482 4.28571C5.71482 2.71 6.99625 1.42857 8.57196 1.42857C10.1477 1.42857 11.4291 2.71 11.4291 4.28571V6.42857H5.71482V4.28571ZM5.00053 9.28571C4.60625 9.28571 4.28625 8.96571 4.28625 8.57143C4.28625 8.17714 4.60625 7.85714 5.00053 7.85714C5.39482 7.85714 5.71482 8.17714 5.71482 8.57143C5.71482 8.96571 5.39482 9.28571 5.00053 9.28571ZM12.0105 11.8436L9.3541 15.9864C9.00768 16.5264 8.33768 16.5514 7.94553 16.1557L5.91339 14.0807C5.63625 13.7979 5.64125 13.3443 5.92411 13.0671C6.17768 12.8193 6.56768 12.7971 6.84553 12.9986L8.38911 14.1143L10.8484 11.0129C11.0941 10.7036 11.5434 10.6514 11.8534 10.8964C12.1427 11.1264 12.2048 11.5386 12.0105 11.8436V11.8436ZM12.1434 9.28571C11.7491 9.28571 11.4291 8.96571 11.4291 8.57143C11.4291 8.17714 11.7491 7.85714 12.1434 7.85714C12.5377 7.85714 12.8577 8.17714 12.8577 8.57143C12.8577 8.96571 12.5377 9.28571 12.1434 9.28571Z" fill="#E0E0E0"/>
</svg>
