<svg width="15" height="15" viewBox="0 0 15 15" fill="none" xmlns="http://www.w3.org/2000/svg">
<path d="M11.7922 9.97559L8.87099 11.2421C8.88677 11.328 8.89493 11.4151 8.89539 11.5024C8.89279 11.9026 8.73157 12.2854 8.4471 12.5669C8.16263 12.8484 7.77812 13.0055 7.37793 13.0039H4.708C4.6417 13.0039 4.57811 12.9776 4.53122 12.9307C4.48434 12.8838 4.458 12.8202 4.458 12.7539C4.458 12.6876 4.48434 12.624 4.53122 12.5771C4.57811 12.5302 4.6417 12.5039 4.708 12.5039H7.37793C7.51077 12.506 7.64271 12.4817 7.76606 12.4323C7.8894 12.383 8.00169 12.3095 8.09639 12.2163C8.19108 12.1231 8.26628 12.012 8.31761 11.8895C8.36895 11.767 8.39538 11.6354 8.39538 11.5026C8.39538 11.3697 8.36895 11.2382 8.31761 11.1156C8.26628 10.9931 8.19108 10.882 8.09639 10.7888C8.00169 10.6956 7.8894 10.6222 7.76606 10.5728C7.64271 10.5234 7.51077 10.4991 7.37793 10.5012H5.17102C4.92643 10.5224 4.68034 10.4843 4.45361 10.3901C3.68832 10.012 2.85277 9.79708 2 9.75903V9.25C2.00001 9.21717 1.99355 9.18465 1.98099 9.15432C1.96843 9.12398 1.95001 9.09642 1.9268 9.0732C1.90358 9.04999 1.87602 9.03157 1.84568 9.01901C1.81535 9.00645 1.78283 8.99999 1.75 9H0.25C0.217167 8.99999 0.184654 9.00645 0.154319 9.01901C0.123984 9.03157 0.0964207 9.04999 0.0732043 9.0732C0.049988 9.09642 0.0315734 9.12398 0.0190128 9.15432C0.00645211 9.18465 -8.53142e-06 9.21717 8.45514e-09 9.25V14.75C-8.53142e-06 14.7828 0.00645211 14.8153 0.0190128 14.8457C0.0315734 14.876 0.049988 14.9036 0.0732043 14.9268C0.0964207 14.95 0.123984 14.9684 0.154319 14.981C0.184654 14.9935 0.217167 15 0.25 15H1.75C1.78283 15 1.81535 14.9935 1.84568 14.981C1.87602 14.9684 1.90358 14.95 1.9268 14.9268C1.95001 14.9036 1.96843 14.876 1.98099 14.8457C1.99355 14.8153 2.00001 14.7828 2 14.75V14.3558C2 14.3558 6.27478 14.7498 6.36243 14.7498C6.62456 14.7511 6.88152 14.6768 7.10254 14.5359L12.6144 11.4539C12.7883 11.3418 12.9147 11.1695 12.9694 10.97C13.0241 10.7705 13.0032 10.5579 12.9108 10.3728C12.8108 10.1758 12.639 10.0247 12.4308 9.95078C12.2227 9.87685 11.9941 9.88573 11.7922 9.97559Z" fill="white"/>
<path d="M4.21839 4.74994C4.17337 4.92274 4.08306 5.08041 3.95678 5.20667C3.8305 5.33293 3.67281 5.4232 3.5 5.46819V6.28169C3.67281 6.32667 3.8305 6.41695 3.95678 6.54321C4.08306 6.66947 4.17337 6.82713 4.21839 6.99994H9.78162C9.82663 6.82713 9.91694 6.66947 10.0432 6.54321C10.1695 6.41695 10.3272 6.32667 10.5 6.28169V5.46844C10.3369 5.42498 10.1876 5.34062 10.0663 5.22334L9.5094 5.78021C9.22714 6.05104 8.85221 6.20401 8.46106 6.20794C8.0835 6.20376 7.72248 6.05239 7.45484 5.78606C7.31386 5.65336 7.20224 5.49261 7.12714 5.31416C7.05204 5.13571 7.01514 4.94351 7.0188 4.74994H4.21839Z" fill="white"/>
<path d="M12 4.16954C11.7134 4.23751 11.4146 4.23426 11.1295 4.1601L10.4192 4.87045C10.5097 4.95295 10.6275 4.99906 10.75 4.99994C10.7828 4.99993 10.8153 5.00639 10.8457 5.01895C10.876 5.03151 10.9036 5.04993 10.9268 5.07314C10.95 5.09636 10.9684 5.12392 10.981 5.15426C10.9936 5.18459 11 5.21711 11 5.24994V6.49994C11 6.53277 10.9936 6.56529 10.981 6.59562C10.9684 6.62596 10.95 6.65352 10.9268 6.67674C10.9036 6.69995 10.876 6.71837 10.8457 6.73093C10.8153 6.74349 10.7828 6.74995 10.75 6.74994C10.6174 6.75009 10.4904 6.80282 10.3966 6.89655C10.3029 6.99029 10.2502 7.11738 10.25 7.24994C10.25 7.28277 10.2436 7.31529 10.231 7.34562C10.2184 7.37596 10.2 7.40352 10.1768 7.42674C10.1536 7.44995 10.126 7.46837 10.0957 7.48093C10.0653 7.49349 10.0328 7.49995 10 7.49994H4C3.96717 7.49995 3.93465 7.49349 3.90432 7.48093C3.87398 7.46837 3.84642 7.44995 3.8232 7.42674C3.79999 7.40352 3.78157 7.37596 3.76901 7.34562C3.75645 7.31529 3.74999 7.28277 3.75 7.24994C3.74985 7.11738 3.69712 6.99029 3.60339 6.89655C3.50965 6.80282 3.38256 6.75009 3.25 6.74994C3.21717 6.74995 3.18465 6.74349 3.15432 6.73093C3.12398 6.71837 3.09642 6.69995 3.0732 6.67674C3.04999 6.65352 3.03157 6.62596 3.01901 6.59562C3.00645 6.56529 2.99999 6.53277 3 6.49994V5.24994C2.99999 5.21711 3.00645 5.18459 3.01901 5.15426C3.03157 5.12392 3.04999 5.09636 3.0732 5.07314C3.09642 5.04993 3.12398 5.03151 3.15432 5.01895C3.18465 5.00639 3.21717 4.99993 3.25 4.99994C3.38256 4.99979 3.50965 4.94706 3.60339 4.85333C3.69712 4.75959 3.74985 4.6325 3.75 4.49994C3.74999 4.46711 3.75645 4.43459 3.76901 4.40426C3.78157 4.37392 3.79999 4.34636 3.8232 4.32314C3.84642 4.29993 3.87398 4.28151 3.90432 4.26895C3.93465 4.25639 3.96717 4.24993 4 4.24994H7.11852C7.20093 4.03648 7.32683 3.84248 7.48822 3.68028L7.91857 3.24994H2.25C2.21717 3.24993 2.18465 3.25639 2.15432 3.26895C2.12398 3.28151 2.09642 3.29993 2.0732 3.32314C2.04999 3.34636 2.03157 3.37392 2.01901 3.40426C2.00645 3.43459 1.99999 3.46711 2 3.49994V8.24994C1.99999 8.28277 2.00645 8.31529 2.01901 8.34562C2.03157 8.37596 2.04999 8.40352 2.0732 8.42674C2.09642 8.44995 2.12398 8.46837 2.15432 8.48093C2.18465 8.49349 2.21717 8.49995 2.25 8.49994H11.75C11.7828 8.49995 11.8153 8.49349 11.8457 8.48093C11.876 8.46837 11.9036 8.44995 11.9268 8.42674C11.95 8.40352 11.9684 8.37596 11.981 8.34562C11.9936 8.31529 12 8.28277 12 8.24994V4.16954Z" fill="white"/>
<path d="M14.75 8.45514e-09H13.75C13.7172 -8.53142e-06 13.6847 0.00645211 13.6544 0.0190128C13.624 0.0315734 13.5965 0.049988 13.5732 0.0732043C13.55 0.0964207 13.5316 0.123984 13.519 0.154319C13.5065 0.184654 13.5 0.217167 13.5 0.25V0.5H9.60403C9.37962 0.499389 9.15732 0.543287 8.94999 0.629154C8.74266 0.715022 8.55441 0.841153 8.39615 1.00025L6.64648 2.75H8.41861L9.19888 1.96973C9.24576 1.92285 9.30934 1.89651 9.37564 1.89651C9.44194 1.89651 9.50552 1.92285 9.5524 1.96973C9.59928 2.01661 9.62562 2.08019 9.62562 2.14649C9.62562 2.21279 9.59928 2.27637 9.5524 2.32325L7.83224 4.04339C7.66702 4.20197 7.55895 4.4108 7.52491 4.63728C7.50419 4.78009 7.51804 4.92579 7.56528 5.06214C7.61252 5.19849 7.69178 5.32153 7.79641 5.42091C7.97738 5.59917 8.22089 5.69958 8.47491 5.70067C8.72893 5.70177 8.9733 5.60346 9.15579 5.42677L11.0012 3.58161C11.219 3.68582 11.4601 3.73188 11.7009 3.71531C11.9418 3.69875 12.1743 3.62012 12.3758 3.48707C12.4331 3.45375 12.5013 3.44457 12.5653 3.46153C12.6294 3.4785 12.6841 3.52022 12.7174 3.57752C12.7508 3.63483 12.7599 3.70302 12.743 3.76709C12.726 3.83117 12.6843 3.88588 12.627 3.9192C12.5849 3.9437 12.5424 3.96464 12.5 3.98615V6.1672C12.8541 6.00123 13.1894 5.79775 13.5 5.56025V5.75C13.5 5.78283 13.5065 5.81535 13.519 5.84568C13.5316 5.87602 13.55 5.90358 13.5732 5.9268C13.5964 5.95001 13.624 5.96843 13.6543 5.98099C13.6847 5.99355 13.7172 6.00001 13.75 6H14.75C14.7829 6.00001 14.8154 5.99355 14.8457 5.98099C14.876 5.96843 14.9036 5.95001 14.9268 5.9268C14.95 5.90358 14.9685 5.87602 14.981 5.84568C14.9936 5.81535 15 5.78283 15 5.75V0.25C15 0.217167 14.9936 0.184655 14.981 0.15432C14.9685 0.123985 14.95 0.0964215 14.9268 0.0732051C14.9036 0.0499888 14.876 0.0315743 14.8457 0.0190135C14.8154 0.00645268 14.7829 -8.20296e-06 14.75 8.45514e-09Z" fill="white"/>
</svg>
