<svg width="14" height="14" viewBox="0 0 14 14" fill="none" xmlns="http://www.w3.org/2000/svg">
<path fill-rule="evenodd" clip-rule="evenodd" d="M10.8824 13.356C10.7717 13.3559 10.6627 13.3289 10.5648 13.2773L6.98606 11.396L3.40731 13.2773C3.29465 13.3361 3.16781 13.3623 3.04106 13.3529C2.91432 13.3435 2.79271 13.2989 2.68994 13.2242C2.58717 13.1494 2.50731 13.0474 2.45936 12.9298C2.41141 12.8121 2.39728 12.6833 2.41856 12.558L3.10106 8.57326L0.205682 5.75139C0.114589 5.66244 0.050193 5.54978 0.0197707 5.42616C-0.0106516 5.30253 -0.00588667 5.17285 0.0335269 5.05179C0.0729406 4.93073 0.145431 4.8231 0.242806 4.74108C0.340181 4.65906 0.458558 4.60591 0.584557 4.58764L4.58506 4.00576L6.37443 0.380637C6.43078 0.266416 6.51797 0.170243 6.62614 0.102995C6.7343 0.0357464 6.85913 0.000106812 6.98649 0.000106812C7.11386 0.000106812 7.23868 0.0357464 7.34685 0.102995C7.45501 0.170243 7.5422 0.266416 7.59856 0.380637L9.38793 4.00576L13.3884 4.58764C13.5144 4.60604 13.6326 4.65929 13.7299 4.74137C13.8272 4.82344 13.8995 4.93108 13.9388 5.05212C13.9782 5.17316 13.9828 5.30278 13.9524 5.42635C13.9219 5.54991 13.8575 5.6625 13.7664 5.75139L10.8719 8.57326L11.5544 12.558C11.5712 12.6559 11.5665 12.7563 11.5405 12.8522C11.5145 12.9481 11.4678 13.0371 11.4038 13.1131C11.3398 13.1891 11.26 13.2502 11.17 13.2922C11.0799 13.3341 10.9818 13.3559 10.8824 13.356Z" fill="white"/>
</svg>
