<svg width="15" height="10" viewBox="0 0 15 10" fill="none" xmlns="http://www.w3.org/2000/svg">
<path d="M12.0151 3.69162C11.9657 3.83348 11.8798 4.06266 11.8854 4.05274C11.8854 4.05274 11.5771 4.89274 11.4961 5.11036H12.3072C12.2684 4.92106 12.081 4.01809 12.081 4.01809L12.0151 3.69162Z" fill="black"/>
<path d="M0 0V9.11005H15V0H0ZM3.3541 6.44888L2.57324 3.49497L1.45879 2.67092H3.42801L3.9358 5.24931L4.89158 2.67102H5.92698L4.38824 6.44891H3.3541V6.44888ZM6.68835 6.45185H5.71128L6.32258 2.66796H7.29959L6.68835 6.45185ZM8.38935 6.50812C7.95082 6.50331 7.52858 6.41183 7.30068 6.30643L7.43733 5.45947L7.56313 5.5197C7.88443 5.66093 8.09229 5.7182 8.48344 5.7182C8.76445 5.7182 9.0657 5.60199 9.06824 5.34857C9.06986 5.18295 8.94195 5.06433 8.56114 4.87902C8.19079 4.6984 7.69932 4.39477 7.70525 3.85101C7.71115 3.11555 8.39117 2.60199 9.35717 2.60199C9.73546 2.60199 10.0395 2.68487 10.2327 2.76082L10.1006 3.58108L10.0128 3.53782C9.83225 3.46098 9.60119 3.38723 9.28137 3.39247C8.89869 3.39247 8.72186 3.5608 8.72163 3.71799C8.71922 3.89568 8.92889 4.01189 9.2703 4.18747C9.83417 4.45744 10.0945 4.78428 10.091 5.21565C10.0833 6.00076 9.41618 6.50812 8.38935 6.50812ZM12.5849 6.45333C12.5849 6.45333 12.495 6.01827 12.4659 5.88653C12.3236 5.88653 11.3265 5.88432 11.2146 5.88432C11.1766 5.98688 11.0091 6.45336 11.0091 6.45336H9.98265L11.434 2.98546C11.5364 2.7388 11.7118 2.67181 11.9461 2.67181H12.7011L13.4918 6.4534H12.5849V6.45333Z" fill="black"/>
</svg>
