<svg width="15" height="14" viewBox="0 0 15 14" fill="none" xmlns="http://www.w3.org/2000/svg">
<path d="M13.0455 11.4547H10.8182C9.41465 11.4547 8.27275 10.3128 8.27275 8.90931C8.27275 7.50577 9.41465 6.36386 10.8182 6.36386H13.0455C13.2213 6.36386 13.3637 6.22154 13.3637 6.04567V5.09112C13.3637 4.4239 12.8461 3.88127 12.1922 3.82865L10.3649 0.636889C10.1955 0.341695 9.92208 0.130711 9.59488 0.0431017C9.26923 -0.043911 8.9287 0.00178784 8.63723 0.171428L2.37294 3.81839H1.27274C0.570818 3.81839 0 4.38918 0 5.09112V12.7275C0 13.4294 0.570788 14.0002 1.27274 14.0002H12.0909C12.7928 14.0002 13.3637 13.4294 13.3637 12.7275V11.7729C13.3637 11.5971 13.2213 11.4547 13.0455 11.4547ZM10.7595 2.60743L11.4528 3.81839H8.6795L10.7595 2.60743ZM3.63771 3.81839L8.95757 0.721396C9.10144 0.637187 9.26953 0.614815 9.43019 0.657709C9.5927 0.701201 9.72819 0.806231 9.8124 0.953201L9.81305 0.954364L4.89386 3.81839H3.63771Z" fill="white"/>
<path d="M13.0465 7.00023H10.8192C9.7665 7.00023 8.91016 7.85658 8.91016 8.90932C8.91016 9.96206 9.7665 10.8184 10.8192 10.8184H13.0465C13.5729 10.8184 14.0011 10.3902 14.0011 9.86386V7.95477C14.0011 7.4284 13.5729 7.00023 13.0465 7.00023ZM10.8192 9.54567C10.4685 9.54567 10.1829 9.26011 10.1829 8.90932C10.1829 8.55852 10.4685 8.27297 10.8192 8.27297C11.17 8.27297 11.4556 8.55852 11.4556 8.90932C11.4556 9.26011 11.1701 9.54567 10.8192 9.54567Z" fill="white"/>
</svg>
